<?xml version="1.0" encoding="utf-8"?>
<svg version="1.1" xmlns:xlink="http://www.w3.org/1999/xlink" width="335px" height="193px" xmlns="http://www.w3.org/2000/svg">
  <g transform="matrix(1 0 0 1 -20 -147 )">
    <path d="M 21 159  A 11 11 0 0 1 32 148 L 343 148  A 11 11 0 0 1 354 159 L 354 328  A 11 11 0 0 1 343 339 L 32 339  A 11 11 0 0 1 21 328 L 21 159  Z " fill-rule="nonzero" fill="#ffffff" stroke="none" />
    <path d="M 20.5 159  A 11.5 11.5 0 0 1 32 147.5 L 343 147.5  A 11.5 11.5 0 0 1 354.5 159 L 354.5 328  A 11.5 11.5 0 0 1 343 339.5 L 32 339.5  A 11.5 11.5 0 0 1 20.5 328 L 20.5 159  Z " stroke-width="1" stroke="#f2f2f2" fill="none" stroke-opacity="0.9882352941176471" />
  </g>
</svg>