<?xml version="1.0" encoding="utf-8"?>
<svg version="1.1" xmlns:xlink="http://www.w3.org/1999/xlink" width="80px" height="32px" xmlns="http://www.w3.org/2000/svg">
  <g transform="matrix(1 0 0 1 -255 -288 )">
    <path d="M 256 304  A 15 15 0 0 1 271 289 L 319 289  A 15 15 0 0 1 334 304 A 15 15 0 0 1 319 319 L 271 319  A 15 15 0 0 1 256 304 Z " fill-rule="nonzero" fill="#f68c95" stroke="none" fill-opacity="0" />
    <path d="M 255.5 304  A 15.5 15.5 0 0 1 271 288.5 L 319 288.5  A 15.5 15.5 0 0 1 334.5 304 A 15.5 15.5 0 0 1 319 319.5 L 271 319.5  A 15.5 15.5 0 0 1 255.5 304 Z " stroke-width="1" stroke="#f2f2f2" fill="none" stroke-opacity="0.9882352941176471" />
  </g>
</svg>