<?xml version="1.0" encoding="utf-8"?>
<svg version="1.1" xmlns:xlink="http://www.w3.org/1999/xlink" width="16px" height="16px" xmlns="http://www.w3.org/2000/svg">
  <g transform="matrix(1 0 0 1 -319 -276 )">
    <path d="M 327 280  C 329.24 280  331 281.76  331 284  C 331 286.24  329.24 288  327 288  C 324.76 288  323 286.24  323 284  C 323 281.76  324.76 280  327 280  Z " fill-rule="nonzero" fill="#ffffff" stroke="none" />
    <path d="M 327 278.5  C 330.08 278.5  332.5 280.92  332.5 284  C 332.5 287.08  330.08 289.5  327 289.5  C 323.92 289.5  321.5 287.08  321.5 284  C 321.5 280.92  323.92 278.5  327 278.5  Z " stroke-width="5" stroke="#f68c95" fill="none" />
  </g>
</svg>