<?xml version="1.0" encoding="utf-8"?>
<svg version="1.1" xmlns:xlink="http://www.w3.org/1999/xlink" width="18px" height="13px" xmlns="http://www.w3.org/2000/svg">
  <g transform="matrix(1 0 0 1 -40 -279 )">
    <path d="M 0.003819130434782605 4.5903  C 0.003819130434782605 2.056324705882353  3.858065217391305 0.0021029411764704417  8.612530434782608 0.0021029411764704417  C 13.366956521739128 0.0021029411764704417  17.22122608695652 2.056324705882353  17.22122608695652 4.5903  L 17.22122608695652 7.649123529411765  C 17.22122608695652 10.183205882352942  13.366956521739128 12.237358823529412  8.612530434782608 12.237358823529412  C 3.942970434782609 12.237358823529412  0.14176173913043486 10.255852941176471  0.0074895652173913654 7.784476470588236  L 0.003819130434782605 7.649123529411765  L 0.003819130434782605 4.5903  Z M 15.656947826086956 7.2283058823529425  C 14.099086956521738 8.407864705882352  11.524695652173914 9.178535294117648  8.612530434782608 9.178535294117648  C 5.700858260869566 9.178535294117648  3.1268113043478265 8.408170588235294  1.5688643478260869 7.228917647058824  L 1.5690365217391304 7.649123529411765  C 1.5690365217391304 9.08845294117647  4.60761652173913 10.70794705882353  8.612530434782608 10.70794705882353  C 12.533947826086957 10.70794705882353  15.528991304347826 9.155288235294119  15.652095652173912 7.739358823529412  L 15.656008695652174 7.649123529411765  L 15.656947826086956 7.2283058823529425  Z M 15.656008695652174 4.5903  C 15.656008695652174 3.1510011764705883  12.617452173913044 1.5315147058823528  8.612530434782608 1.5315147058823528  C 4.60761652173913 1.5315147058823528  1.5690365217391304 3.1510011764705883  1.5690365217391304 4.5903  C 1.5690365217391304 6.029629411764706  4.60761652173913 7.649123529411765  8.612530434782608 7.649123529411765  C 12.617452173913044 7.649123529411765  15.656008695652174 6.029629411764706  15.656008695652174 4.5903  Z " fill-rule="nonzero" fill="#333333" stroke="none" transform="matrix(1 0 0 1 40 279 )" />
  </g>
</svg>