<?xml version="1.0" encoding="utf-8"?>
<svg version="1.1" xmlns:xlink="http://www.w3.org/1999/xlink" width="35px" height="35px" xmlns="http://www.w3.org/2000/svg">
  <g transform="matrix(1 0 0 1 -176 -712 )">
    <path d="M 193.5 712  C 203.3 712  211 719.7  211 729.5  C 211 739.3  203.3 747  193.5 747  C 183.7 747  176 739.3  176 729.5  C 176 719.7  183.7 712  193.5 712  Z " fill-rule="nonzero" fill="#ffffff" stroke="none" />
    <path d="M 193.5 712.5  C 203.02 712.5  210.5 719.98  210.5 729.5  C 210.5 739.02  203.02 746.5  193.5 746.5  C 183.98 746.5  176.5 739.02  176.5 729.5  C 176.5 719.98  183.98 712.5  193.5 712.5  Z " stroke-width="1" stroke="#797979" fill="none" />
  </g>
</svg>