<?xml version="1.0" encoding="utf-8"?>
<svg version="1.1" xmlns:xlink="http://www.w3.org/1999/xlink" width="18px" height="18px" xmlns="http://www.w3.org/2000/svg">
  <g transform="matrix(1 0 0 1 -34 -65 )">
    <path d="M 0 7.810714285714198  C 0 3.4992000000000303  3.4560000000000315 0  7.714285714285808 0  C 11.97257142857147 0  15.428571428571402 3.4992000000000303  15.428571428571402 7.810714285714198  C 15.428571428571402 12.122228571428622  11.97257142857147 15.621428571428652  7.714285714285808 15.621428571428652  C 3.4560000000000315 15.621428571428652  0 12.122228571428622  0 7.810714285714198  Z M 1.7142857142857366 7.810714285714198  C 1.7142857142857366 11.166717857142714  4.398857142857054 13.8857142857143  7.714285714285808 13.8857142857143  C 11.028857142857163 13.8857142857143  13.714285714285765 11.166717857142714  13.714285714285765 7.810714285714198  C 13.714285714285765 4.45384285714286  11.028857142857163 1.7357142857143515  7.714285714285808 1.7357142857143515  C 4.398857142857054 1.7357142857143515  1.7142857142857366 4.45384285714286  1.7142857142857366 7.810714285714198  Z M 13.775142857142882 15.174482142857158  L 14.987142857142913 13.94733214285722  L 17.41200000000002 16.401632142857096  L 16.19914285714283 17.629649999999856  L 13.775142857142882 15.174482142857158  Z " fill-rule="nonzero" fill="#cecece" stroke="none" transform="matrix(1 0 0 1 34 65 )" />
  </g>
</svg>