<?xml version="1.0" encoding="utf-8"?>
<svg version="1.1" xmlns:xlink="http://www.w3.org/1999/xlink" width="335px" height="40px" xmlns="http://www.w3.org/2000/svg">
  <g transform="matrix(1 0 0 1 -20 -54 )">
    <path d="M 21 66  A 11 11 0 0 1 32 55 L 343 55  A 11 11 0 0 1 354 66 L 354 82  A 11 11 0 0 1 343 93 L 32 93  A 11 11 0 0 1 21 82 L 21 66  Z " fill-rule="nonzero" fill="#ffffff" stroke="none" />
    <path d="M 20.5 66  A 11.5 11.5 0 0 1 32 54.5 L 343 54.5  A 11.5 11.5 0 0 1 354.5 66 L 354.5 82  A 11.5 11.5 0 0 1 343 93.5 L 32 93.5  A 11.5 11.5 0 0 1 20.5 82 L 20.5 66  Z " stroke-width="1" stroke="#aaaaaa" fill="none" stroke-opacity="0.9882352941176471" />
  </g>
</svg>