<?xml version="1.0" encoding="utf-8"?>
<svg version="1.1" xmlns:xlink="http://www.w3.org/1999/xlink" width="335px" height="111px" xmlns="http://www.w3.org/2000/svg">
  <g transform="matrix(1 0 0 1 -17 -87 )">
    <path d="M 18 99  A 11 11 0 0 1 29 88 L 340 88  A 11 11 0 0 1 351 99 L 351 186  A 11 11 0 0 1 340 197 L 29 197  A 11 11 0 0 1 18 186 L 18 99  Z " fill-rule="nonzero" fill="#ffffff" stroke="none" />
    <path d="M 17.5 99  A 11.5 11.5 0 0 1 29 87.5 L 340 87.5  A 11.5 11.5 0 0 1 351.5 99 L 351.5 186  A 11.5 11.5 0 0 1 340 197.5 L 29 197.5  A 11.5 11.5 0 0 1 17.5 186 L 17.5 99  Z " stroke-width="1" stroke="#7f7f7f" fill="none" stroke-opacity="0.9882352941176471" />
  </g>
</svg>