<?xml version="1.0" encoding="utf-8"?>
<svg version="1.1" xmlns:xlink="http://www.w3.org/1999/xlink" width="139px" height="145px" xmlns="http://www.w3.org/2000/svg">
  <g transform="matrix(1 0 0 1 -1980 -127 )">
    <path d="M 1980 127  L 2119 127  L 2119 272  L 1980 272  L 1980 127  " fill-rule="nonzero" fill="#cccccc" stroke="none" />
    <path d="M 1990 137  L 2109 137  L 2109 262  L 1990 262  L 1990 137  " fill-rule="nonzero" fill="#ffffff" stroke="none" />
    <path d="M 2062.705 169.6  C 2056.867 169.6  2052.28 165.013  2052.28 159.175  C 2052.28 153.33700000000002  2056.867 148.75  2062.705 148.75  C 2068.543 148.75  2073.13 153.33700000000002  2073.13 159.175  C 2073.13 165.013  2068.543 169.6  2062.705 169.6  " fill-rule="nonzero" fill="#cccccc" stroke="none" />
    <path d="M 1994 259  L 1994 194.1  L 2022 164.6  L 2061.2 188.2  L 2083.6 182.3  L 2106 188.2  L 2106 259  L 1994 259  " fill-rule="nonzero" fill="#169bd5" stroke="none" />
  </g>
</svg>