<?xml version="1.0" encoding="utf-8"?>
<svg version="1.1" xmlns:xlink="http://www.w3.org/1999/xlink" width="112px" height="102px" xmlns="http://www.w3.org/2000/svg">
  <g transform="matrix(1 0 0 1 -44 -584 )">
    <path d="M 44 584  L 156 584  L 156 686  L 44 686  L 44 584  " fill-rule="nonzero" fill="#cccccc" stroke="none" />
    <path d="M 51 591  L 149 591  L 149 679  L 51 679  L 51 591  " fill-rule="nonzero" fill="#ffffff" stroke="none" />
    <path d="M 109.89000000000001 614.5999999999999  C 105.60600000000001 614.5999999999999  102.24000000000001 611.2339999999999  102.24000000000001 606.9499999999999  C 102.24000000000001 602.6659999999999  105.60600000000001 599.3  109.89000000000001 599.3  C 114.174 599.3  117.54 602.6659999999999  117.54 606.9499999999999  C 117.54 611.2339999999999  114.174 614.5999999999999  109.89000000000001 614.5999999999999  " fill-rule="nonzero" fill="#cccccc" stroke="none" />
    <path d="M 54 677  L 54 631.35  L 77.25 610.6  L 109.8 631.6464285714286  L 128.4 623.05  L 147 631.6464285714286  L 147 677  L 54 677  " fill-rule="nonzero" fill="#169bd5" stroke="none" />
  </g>
</svg>