<?xml version="1.0" encoding="utf-8"?>
<svg version="1.1" xmlns:xlink="http://www.w3.org/1999/xlink" width="33px" height="30px" xmlns="http://www.w3.org/2000/svg">
  <g transform="matrix(1 0 0 1 -35 -589 )">
    <path d="M 51.5 589  C 60.74 589  68 595.6  68 604  C 68 612.4  60.74 619  51.5 619  C 42.26 619  35 612.4  35 604  C 35 595.6  42.26 589  51.5 589  Z " fill-rule="nonzero" fill="#ffffff" stroke="none" />
    <path d="M 51.5 589.5  C 60.46 589.5  67.5 595.88  67.5 604  C 67.5 612.12  60.46 618.5  51.5 618.5  C 42.54 618.5  35.5 612.12  35.5 604  C 35.5 595.88  42.54 589.5  51.5 589.5  Z " stroke-width="1" stroke="#797979" fill="none" />
  </g>
</svg>