<?xml version="1.0" encoding="utf-8"?>
<svg version="1.1" xmlns:xlink="http://www.w3.org/1999/xlink" width="177px" height="142px" xmlns="http://www.w3.org/2000/svg">
  <g transform="matrix(1 0 0 1 -5 -52 )">
    <path d="M 5 52  L 182 52  L 182 194  L 5 194  L 5 52  " fill-rule="nonzero" fill="#cccccc" stroke="none" />
    <path d="M 15 62  L 172 62  L 172 184  L 15 184  L 15 62  " fill-rule="nonzero" fill="#ffffff" stroke="none" />
    <path d="M 107.69 94.6  C 101.726 94.6  97.04 89.91399999999999  97.04 83.94999999999999  C 97.04 77.98599999999999  101.726 73.3  107.69 73.3  C 113.654 73.3  118.34 77.98599999999999  118.34 83.94999999999999  C 118.34 89.91399999999999  113.654 94.6  107.69 94.6  " fill-rule="nonzero" fill="#cccccc" stroke="none" />
    <path d="M 19 181  L 19 117.75  L 56.5 89  L 109 125.64406779661016  L 139 106.25  L 169 125.64406779661016  L 169 181  L 19 181  " fill-rule="nonzero" fill="#169bd5" stroke="none" />
  </g>
</svg>