<?xml version="1.0" encoding="utf-8"?>
<svg version="1.1" xmlns:xlink="http://www.w3.org/1999/xlink" width="66px" height="62px" xmlns="http://www.w3.org/2000/svg">
  <g transform="matrix(1 0 0 1 -761 -302 )">
    <path d="M 761 302  L 827 302  L 827 364  L 761 364  L 761 302  " fill-rule="nonzero" fill="#cccccc" stroke="none" />
    <path d="M 765 306  L 823 306  L 823 360  L 765 360  L 765 306  " fill-rule="nonzero" fill="#ffffff" stroke="none" />
    <path d="M 799.97 320.6  C 797.366 320.6  795.32 318.55400000000003  795.32 315.95000000000005  C 795.32 313.346  797.366 311.3  799.97 311.3  C 802.5740000000001 311.3  804.62 313.346  804.62 315.95000000000005  C 804.62 318.55400000000003  802.5740000000001 320.6  799.97 320.6  " fill-rule="nonzero" fill="#cccccc" stroke="none" />
    <path d="M 767 359  L 767 330.95  L 780.75 318.2  L 800 330.25454545454545  L 811 325.85  L 822 330.25454545454545  L 822 359  L 767 359  " fill-rule="nonzero" fill="#169bd5" stroke="none" />
  </g>
</svg>