<?xml version="1.0" encoding="utf-8"?>
<svg version="1.1" xmlns:xlink="http://www.w3.org/1999/xlink" width="20px" height="16px" xmlns="http://www.w3.org/2000/svg">
  <g transform="matrix(1 0 0 1 -45 -658 )">
    <path d="M 18.518518518518523 0.8888888888888686  L 18.518518518518523 3.5555555555555656  L 19.44444444444443 3.5555555555555656  L 19.44444444444443 12.444444444444434  L 18.518518518518523 12.444444444444434  L 18.518518518518523 15.111111111111132  C 18.518518518518523 15.6020308887385  18.103967360954414 16  17.59259259259257 16  L 0.925925925925905 16  C 0.4145511575640626 16  0 15.6020308887385  0 15.111111111111132  L 0 0.8888888888888686  C 0 0.3979691112615001  0.4145511575640626 0  0.925925925925905 0  L 17.59259259259257 0  C 18.103967360954414 0  18.518518518518523 0.3979691112615001  18.518518518518523 0.8888888888888686  Z M 16.666666666666668 14  L 16.666666666666668 12.444444444444434  L 11.111111111111097 12.444444444444434  C 8.554237269301884 12.444444444444434  6.481481481481476 10.454598888136843  6.481481481481476 8  C 6.481481481481476 5.545401111863157  8.554237269301884 3.5555555555555656  11.111111111111097 3.5555555555555656  L 16.666666666666668 3.5555555555555656  L 16.666666666666668 2  L 2 2  L 2 14  L 16.666666666666668 14  Z M 11.111111111111097 10.666666666666652  L 17.59259259259257 10.666666666666652  L 17.59259259259257 5.333333333333348  L 11.111111111111097 5.333333333333348  C 9.576986806025568 5.333333333333348  8.333333333333334 6.527240667117894  8.333333333333334 8  C 8.333333333333334 9.472759332882106  9.576986806025568 10.666666666666652  11.111111111111097 10.666666666666652  Z M 11.111111111111097 8.888888888888868  L 11.111111111111097 7.111111111111131  L 13.888888888888857 7.111111111111131  L 13.888888888888857 8.888888888888868  L 11.111111111111097 8.888888888888868  Z " fill-rule="nonzero" fill="#333333" stroke="none" transform="matrix(1 0 0 1 45 658 )" />
  </g>
</svg>