<?xml version="1.0" encoding="utf-8"?>
<svg version="1.1" xmlns:xlink="http://www.w3.org/1999/xlink" width="20px" height="18px" xmlns="http://www.w3.org/2000/svg">
  <g transform="matrix(1 0 0 1 -236 -658 )">
    <path d="M 10.260744297719114 1.8261031873389988  C 10.042364762642872 1.8085484180386577  9.823283643734808 1.7997589734351953  9.604102141224757 1.7997589734351953  C 5.360857964853732 1.7997589734351953  1.921028911933068 5.02330813939881  1.921028911933068 8.999757554554137  C 1.921028911933068 12.976206969709516  5.360857964853732 16.199756135673077  9.604102141224757 16.199756135673077  C 13.847346317595782 16.199756135673077  17.287175370516554 12.976206969709516  17.287175370516554 8.999757554554137  C 17.287175370516554 8.794357129492008  17.27779620942751 8.589050776394433  17.25906362545012 8.384401894915639  C 17.191730130561414 7.628221206283174  16.996241764239976 6.886926549539917  16.679951980792275 6.188402327674373  L 18.120528211284505 4.8366025940693  C 18.837824259678655 6.121251334480559  19.210932915833556 7.550118855831956  19.207683073229223 9.000001773601324  C 19.207683073229223 13.970700794041296  14.908043217286874 18  9.603841536614558 18  C 4.299639855942349 18  0 13.970700794041296  0 9.000001773601324  C 0 4.0293027531613514  4.299639855942349 0  9.603841536614558 0  C 11.150777794527064 -0.0012845636154395343  12.675071399310344 0.34826347070843344  14.046578631452489 1.0188033464309996  L 12.605042016806735 2.368803080390801  C 11.85962527089519 2.072472997785667  11.068607047767014 1.8892789272205452  10.261704681872743 1.8261031873389988  Z M 8.925810324129609 8.363701898994991  L 17.752701080432114 0.09000352946668475  L 19.11164465786301 1.3635032785020615  L 10.283793517406982 9.636301648207706  L 8.927731092436867 9.63900164767564  L 8.925810324129609 8.363701898994991  Z " fill-rule="nonzero" fill="#333333" stroke="none" transform="matrix(1 0 0 1 236 658 )" />
  </g>
</svg>