<?xml version="1.0" encoding="utf-8"?>
<svg version="1.1" xmlns:xlink="http://www.w3.org/1999/xlink" width="23px" height="16px" xmlns="http://www.w3.org/2000/svg">
  <g transform="matrix(1 0 0 1 -139 -658 )">
    <path d="M 13.565837104072381 12.879256965944286  L 8.289366515837107 12.879256965944286  C 8.033582748587992 14.588065992777382  6.4964609700430955 15.85759924776391  4.683257918552051 15.85759924776391  C 2.8700548670610058 15.85759924776391  1.3329330885160595 14.588065992777382  1.077149321266944 12.879256965944286  L 0 12.879256965944286  L 0 0.990712074303414  C 0 0.4435569041924234  0.4659479979136756 0  1.0407239819004614 0  L 15.610859728506771 0  C 16.185635712493607 0  16.65158371040723 0.4435569041924234  16.65158371040723 0.990712074303414  L 16.65158371040723 2.972136222910194  L 19.773755656108612 2.972136222910194  L 22.89592760180995 6.990464396284838  L 22.89592760180995 12.879256965944286  L 20.778054298642544 12.879256965944286  C 20.522270531393428 14.588065992777382  18.98514875284848 15.85759924776391  17.171945701357437 15.85759924776391  C 15.358742649866443 15.85759924776391  13.821620871321494 14.588065992777382  13.565837104072381 12.879256965944286  Z M 14.570135746606308 9.956656346749218  L 14.570135746606308 2  L 2.081447963800923 2  L 2.081447963800923 9.956656346749218  C 2.7665927910551558 9.29081083215107  3.7044805137434325 8.915575794810904  4.683594807320071 8.915575794810904  C 6.090884876758745 8.915575794810904  7.372281581711948 9.687284256680773  7.975067873303155 10.89783281733746  L 13.880135746606333 10.89783281733746  C 14.0549773755656 10.548111455108339  14.28914027149319 10.230092879256949  14.570135746606308 9.956656346749218  Z M 16.65158371040723 4.953560371517022  L 16.65158371040723 7.925696594427264  L 20.814479638009026 7.925696594427264  L 20.814479638009026 7.6433436532507635  L 18.724705882352957 4.953560371517022  L 16.65158371040723 4.953560371517022  Z M 17.171945701357437 13.869969040247701  C 18.03439706532966 13.869969040247701  18.733552036199104 13.204411905506994  18.733552036199104 12.383405572755404  C 18.733552036199104 11.562399240003861  18.03439706532966 10.896842105263156  17.171945701357437 10.896842105263156  C 16.309494337385264 10.896842105263156  15.61033936651582 11.562399240003861  15.61033936651582 12.383405572755404  C 15.61033936651582 13.204411905506994  16.309494337385264 13.869969040247701  17.171945701357437 13.869969040247701  Z M 6.2443438914027185 12.38390089747602  C 6.2443438914027185 11.563168142309511  5.5454218945322555 10.897832786020922  4.683257918552051 10.897832786020922  C 3.821093942571847 10.897832786020922  3.1221719457013335 11.563168142309511  3.1221719457013335 12.38390089747602  C 3.1221719638701018 13.204633671729185  3.8210939554191 13.869969008931117  4.683257918552051 13.869969008931117  C 5.5454218945322555 13.869969008931117  6.2443438914027185 13.20463365264253  6.2443438914027185 12.38390089747602  Z " fill-rule="nonzero" fill="#333333" stroke="none" transform="matrix(1 0 0 1 139 658 )" />
  </g>
</svg>