<?xml version="1.0" encoding="utf-8"?>
<svg version="1.1" xmlns:xlink="http://www.w3.org/1999/xlink" width="19px" height="18px" xmlns="http://www.w3.org/2000/svg">
  <g transform="matrix(1 0 0 1 -323 -658 )">
    <path d="M 3.5226258503401375 2.067510204081636  C 7.245764172335617 -0.8230204081632709  12.748009070294833 -0.6218775510203718  16.22375963718821 2.6709387755101943  C 19.925097505668948 6.177469387755102  19.925097505668948 11.863346938775502  16.22375963718821 15.369877551020409  C 12.522421768707474 18.876408163265317  6.520662131519275 18.876408163265317  2.8193242630385384 15.369877551020409  C 0.510279004209012 13.185340666284333  -0.44917316390104967 10.028597704501184  0.2800453514739083 7.0152653061224495  L 0.35302947845801985 6.734204081632687  L 2.1861632653060883 7.19216326530615  C 2.02046603452147 7.788779906815767  1.9365820336722017 8.403132310468193  1.9365820336722017 9.020054496154357  C 1.9365820336722017 12.987487801061324  5.331502207290852 16.203727965542104  9.519348473581493 16.203727965542104  C 13.707194739872133 16.203727965542104  17.102114913490833 12.987487801061324  17.102114913490833 9.020054496154357  C 17.102114913490833 5.052621191247433  13.707194739872133 1.8363810267666063  9.519348473581493 1.8363810267666063  C 7.925461553245252 1.8363810267666063  6.372101858247615 2.3122002894394416  5.07993650793653 3.1962448979591715  L 4.870462585033986 3.3453061224489704  L 5.8344217687074975 4.258530612244835  L 1.4781224489796174 5.210367346938762  L 2.4828390022675535 1.0833469387755537  L 3.521678004535134 2.067510204081636  Z M 8.573696145124682 3.6326530612244547  L 10.469387755102066 3.6326530612244547  L 10.469387755102066 5.42857142857145  L 12.839002267573722 5.42857142857145  L 12.839002267573722 7.2244897959184  L 7.625850340136088 7.2244897959184  C 7.363237504347454 7.224489035142276  7.151054993496312 7.425504045422351  7.151054993496312 7.673468626979049  C 7.151054993496312 7.8905792444192935  7.315038268050095 8.076585073677988  7.540544217687123 8.11526530612244  L 7.625850340136088 8.122448979591804  L 11.41723356009066 8.122448979591804  C 12.725935518306514 8.122448979591804  13.786848072562364 9.127524030992133  13.786848072562364 10.36734693877548  C 13.786848072562364 11.607169846558918  12.725935518306514 12.612244897959155  11.41723356009066 12.612244897959155  L 10.469387755102066 12.612244897959155  L 10.469387755102066 14.408163265306147  L 8.573696145124682 14.408163265306147  L 8.573696145124682 12.612244897959155  L 6.204081632653025 12.612244897959155  L 6.204081632653025 10.816326530612203  L 11.41723356009066 10.816326530612203  C 11.679846395879295 10.816327291388328  11.892028906730435 10.61531228110825  11.892028906730435 10.367347699551601  C 11.892028906730435 10.150237082111309  11.728045632176654 9.964231252852615  11.502539682539624 9.925551020408163  L 11.41723356009066 9.918367346938798  L 7.625850340136088 9.918367346938798  C 6.317148381920235 9.918367346938798  5.256235827664382 8.913292295538518  5.256235827664382 7.673469387755125  C 5.256235827664382 6.433646479971685  6.317148381920235 5.42857142857145  7.625850340136088 5.42857142857145  L 8.573696145124682 5.42857142857145  L 8.573696145124682 3.6326530612244547  Z " fill-rule="nonzero" fill="#333333" stroke="none" transform="matrix(1 0 0 1 323 658 )" />
  </g>
</svg>