<?xml version="1.0" encoding="utf-8"?>
<svg version="1.1" xmlns:xlink="http://www.w3.org/1999/xlink" width="10px" height="10px" xmlns="http://www.w3.org/2000/svg">
  <g transform="matrix(1 0 0 1 -170 -262 )">
    <path d="M 175 262  C 177.8 262  180 264.2  180 267  C 180 269.8  177.8 272  175 272  C 172.2 272  170 269.8  170 267  C 170 264.2  172.2 262  175 262  Z " fill-rule="nonzero" fill="#ffffff" stroke="none" />
    <path d="M 175 262.5  C 177.52 262.5  179.5 264.48  179.5 267  C 179.5 269.52  177.52 271.5  175 271.5  C 172.48 271.5  170.5 269.52  170.5 267  C 170.5 264.48  172.48 262.5  175 262.5  Z " stroke-width="1" stroke="#797979" fill="none" />
  </g>
</svg>