<?xml version="1.0" encoding="utf-8"?>
<svg version="1.1" xmlns:xlink="http://www.w3.org/1999/xlink" width="10px" height="10px" xmlns="http://www.w3.org/2000/svg">
  <g transform="matrix(1 0 0 1 -145 -262 )">
    <path d="M 150 262  C 152.8 262  155 264.2  155 267  C 155 269.8  152.8 272  150 272  C 147.2 272  145 269.8  145 267  C 145 264.2  147.2 262  150 262  Z " fill-rule="nonzero" fill="#7f7f7f" stroke="none" />
    <path d="M 150 262.5  C 152.52 262.5  154.5 264.48  154.5 267  C 154.5 269.52  152.52 271.5  150 271.5  C 147.48 271.5  145.5 269.52  145.5 267  C 145.5 264.48  147.48 262.5  150 262.5  Z " stroke-width="1" stroke="#797979" fill="none" />
  </g>
</svg>