<?xml version="1.0" encoding="utf-8"?>
<svg version="1.1" xmlns:xlink="http://www.w3.org/1999/xlink" width="148px" height="93px" xmlns="http://www.w3.org/2000/svg">
  <g transform="matrix(1 0 0 1 -10 -638 )">
    <path d="M 10 638  L 158 638  L 158 731  L 10 731  L 10 638  " fill-rule="nonzero" fill="#cccccc" stroke="none" />
    <path d="M 17 645  L 151 645  L 151 724  L 17 724  L 17 645  " fill-rule="nonzero" fill="#ffffff" stroke="none" />
    <path d="M 93.935 665.9000000000001  C 90.02900000000001 665.9000000000001  86.96000000000001 662.8310000000001  86.96000000000001 658.9250000000001  C 86.96000000000001 655.019  90.02900000000001 651.95  93.935 651.95  C 97.84100000000001 651.95  100.91000000000001 655.019  100.91000000000001 658.9250000000001  C 100.91000000000001 662.8310000000001  97.84100000000001 665.9000000000001  93.935 665.9000000000001  " fill-rule="nonzero" fill="#cccccc" stroke="none" />
    <path d="M 20 722  L 20 681.3  L 52.25 662.8  L 97.39999999999999 694.1  L 123.2 673.9  L 149 694.1  L 149 722  L 20 722  " fill-rule="nonzero" fill="#169bd5" stroke="none" />
  </g>
</svg>