<?xml version="1.0" encoding="utf-8"?>
<svg version="1.1" xmlns:xlink="http://www.w3.org/1999/xlink" width="139px" height="145px" xmlns="http://www.w3.org/2000/svg">
  <g transform="matrix(1 0 0 1 -1453 -127 )">
    <path d="M 1453 127  L 1592 127  L 1592 272  L 1453 272  L 1453 127  " fill-rule="nonzero" fill="#cccccc" stroke="none" />
    <path d="M 1463 137  L 1582 137  L 1582 262  L 1463 262  L 1463 137  " fill-rule="nonzero" fill="#ffffff" stroke="none" />
    <path d="M 1535.705 169.6  C 1529.867 169.6  1525.28 165.013  1525.28 159.175  C 1525.28 153.33700000000002  1529.867 148.75  1535.705 148.75  C 1541.543 148.75  1546.1299999999999 153.33700000000002  1546.1299999999999 159.175  C 1546.1299999999999 165.013  1541.543 169.6  1535.705 169.6  " fill-rule="nonzero" fill="#cccccc" stroke="none" />
    <path d="M 1467 259  L 1467 194.1  L 1495 164.6  L 1534.2 188.2  L 1556.6 182.3  L 1579 188.2  L 1579 259  L 1467 259  " fill-rule="nonzero" fill="#169bd5" stroke="none" />
  </g>
</svg>