<?xml version="1.0" encoding="utf-8"?>
<svg version="1.1" xmlns:xlink="http://www.w3.org/1999/xlink" width="28px" height="27px" xmlns="http://www.w3.org/2000/svg">
  <g transform="matrix(1 0 0 1 -772 -462 )">
    <path d="M 27.879472536835387 10.128890596695381  C 27.55629037114526 9.1195586540045  26.648724015440134 8.412581654498602  25.45634415298522 8.239172201789554  L 19.764501170945017 7.407696108030995  C 19.57856074684939 7.375089202393404  19.171262675020763 7.0786627875061185  19.082719615927516 6.912663995169316  L 16.537106666998515 1.7370587912389694  C 16.007324030090935 0.649173848602961  15.059913297793932 0  14.000348023978766 0  C 12.940782750163724 0  11.99189630021506 0.649173848602961  11.466540816262224 1.7311302629411491  L 8.920927867333104 6.908217598946042  C 8.832384808239976 7.07569852335727  8.423611018759807 7.37360707031898  8.239146312315603 7.40621397595657  L 2.547303330275398 8.23769006971513  C 1.3549234678206035 8.40961739034963  0.4488328297670203 9.11659438985565  0.12860209937997988 10.11999780424883  C -0.20343437221951752 11.132294011088563  0.11679635816752296 12.240928802766641  0.9815669019776864 13.076851292748595  L 5.100294867462229 17.11121479936327  C 5.230158020798896 17.24608881813691  5.38658409186356 17.72926387440307  5.3600211741355634 17.913048251633093  L 4.383096088807478 23.61332820991386  C 4.223718582439729 24.56633913377611  4.43327048896027 25.443761321842203  4.971907431777105 26.081078113849767  C 5.777649269525103 27.047428226381964  7.173678167894272 27.289015754515038  8.485591160124937 26.602788604051213  L 13.581244210937685 23.9142010210243  C 13.646175787606019 23.880111983312283  14.338287366184433 23.875665587089006  14.41797611936831 23.915683153098723  L 19.51658060548414 26.60427073612564  C 20.019800324663724 26.866608113300785  20.53039863210114 27  21.02623976302301 27  C 21.809845835997635 27  22.54032607351639 26.66355601910312  23.024361463225805 26.08256024592419  C 23.568901276648926 25.434868529395654  23.778453183169468 24.554482077180708  23.611697088543888 23.605917549541612  L 22.636247720867345 17.913048251633093  C 22.61116052079089 17.72629961025422  22.763159438900928 17.24608881813691  22.901876898146845 17.10676840314  L 27.011750557722138 13.076851292748595  C 27.8765211015323 12.239446670692216  28.198227549570884 11.133776143162988  27.879472536835387 10.128890596695381  Z M 25.451917000030594 10.905527803699854  C 25.46372274124305 10.9307240489652  25.42682979995414 11.061151671515683  25.242365093510056 11.24048965252243  L 21.133967151586305 15.267442498764861  C 20.40053547876447 15.97738376241973  19.959295900950018 17.327606082230886  20.131954866181765 18.33990228907062  L 21.105928516206767 24.040182247351385  C 21.147248610450305 24.275841247186765  21.11035566916151 24.394411813141605  21.079365598478887 24.43146511500247  C 21.079365598478887 24.43146511500247  21.05427839840243 24.520393039468694  20.694203291423513 24.332162266015274  L 15.610355981823222 21.649503211286177  C 15.176494992266601 21.415326343525347  14.602440825812394 21.28638085304941  13.997396588675683 21.28638085304941  C 13.3967795044936 21.28638085304941  12.825676773342598 21.4138442114508  12.394767219089058 21.645056815062905  L 7.306492756534022 24.332162266015274  C 7.119076614786852 24.428500850853624  7.009873508571895 24.43739364330029  6.91542757887248 24.4270187187792  C 6.887388943493059 24.394411813141605  6.850496002204146 24.272876983037794  6.890340378796143 24.03573585112811  L 7.865789746472686 18.33990228907062  C 8.038448711704435 17.332052478454163  7.601636286844726 15.984794422791854  6.872631766977518 15.273371027062684  L 2.749476648538229 11.236043256299034  C 2.5694390950487698 11.06115167151556  2.536973306714603 10.932206181039744  2.545827612623856 10.905527803699854  C 2.5487790479269403 10.893670747104332  2.6402735423232717 10.801778558489262  2.9088541549059777 10.761760992479546  L 8.59922141929452 9.928802766646562  C 9.60713657530535 9.782071691277405  10.746390602304269 8.952077729593272  11.197960203679518 8.036120107591765  L 13.746524587911603 2.851622111214748  C 13.969357953296143 2.3936433002140554  14.016580918145852 2.3891969039907806  14.24531715413656 2.857550639512568  L 16.792405820717224 8.037602239666189  C 17.24249970444093 8.953559861667696  18.384705166742933 9.785035955426256  19.3911446051021 9.931767030795413  L 25.084463304793847 10.761760992479546  C 25.34418961146718 10.798814294340412  25.443062694121224 10.887742218806634  25.451917000030594 10.905527803699854  Z " fill-rule="nonzero" fill="#8a8a8a" stroke="none" transform="matrix(1 0 0 1 772 462 )" />
  </g>
</svg>