<?xml version="1.0" encoding="utf-8"?>
<svg version="1.1" xmlns:xlink="http://www.w3.org/1999/xlink" width="48px" height="48px" xmlns="http://www.w3.org/2000/svg">
  <g transform="matrix(1 0 0 1 -762 -452 )">
    <path d="M 48 24  C 48 10.765913043478285  37.234086956521715 0  24 0  C 10.765913043478285 0  0 10.765913043478285  0 24  C 0 37.234086956521715  10.765913043478285 48  24 48  C 37.234086956521715 48  48 37.234086956521715  48 24  Z M 45.257739130434715 24  C 45.257739130434715 35.721739130434784  35.721739130434784 45.257739130434715  24 45.257739130434715  C 12.278260869565209 45.257739130434715  2.742260869565281 35.721739130434784  2.742260869565281 24  C 2.742260869565281 12.278260869565209  12.278260869565209 2.742260869565281  24 2.742260869565281  C 35.721739130434784 2.742260869565281  45.257739130434715 12.278260869565209  45.257739130434715 24  Z " fill-rule="nonzero" fill="#8a8a8a" stroke="none" transform="matrix(1 0 0 1 762 452 )" />
  </g>
</svg>