<?xml version="1.0" encoding="utf-8"?>
<svg version="1.1" xmlns:xlink="http://www.w3.org/1999/xlink" width="35px" height="11px" xmlns="http://www.w3.org/2000/svg">
  <g transform="matrix(1 0 0 1 -1004 -468 )">
    <path d="M 8.976705018929113 3.8479001790054106  C 8.976705018929113 0.8828221067019983  7.235760674707227 0.001310769779754491  5.6399235705714235 0.001310769779754491  C 4.1347285729812535 0.001310769779754491  3.1735572604989284 0.7626103461026656  2.4301322475989515 1.8444537380823294  L 2.393784228759368 1.8444537380823294  L 2.393784228759368 1.4638039806558008  C 2.393784228759368 0.582292582263447  2.031158713108476 0.001310769779754491  1.196920603471194 0.001310769779754491  C 0.3627394720168148 0.001310769779754491  0 0.582292582263447  0 1.4638039806558008  L 0 9.537443843949  C 0 10.318757711490113  0.2901573907036866 10.999937054825047  1.3238537506732728 10.999937054825047  C 2.357550110642976 10.999937054825047  2.6477075013466624 10.318757711490113  2.6477075569893933 9.537443843949  L 2.6477075569893933 4.709271395829656  C 2.6477075569893933 3.2467781849536097  3.735755038490778 2.405421320817675  4.660635254673691 2.4054212593478206  C 5.803147758430184 2.4054212593478206  6.32899751758245 3.2468410686587093  6.32899751758245 4.42881910778426  L 6.32899751758245 9.5375067276541  C 6.32899751758245 10.318820595195211  6.619211886469156 10.999999938530145  7.652908246438742 11  C 8.686604606408446 11.000000061469855  8.976705018929113 10.318820656665066  8.976705018929113 9.5375067276541  L 8.976705018929113 3.8479001790054106  Z M 20.47412746946252 4.789328683642935  C 20.474070491279498 2.3852810777797124  18.733126147057614 0.001310769779754491  15.686559011943784 0.001310769779754491  C 12.549235813918399 0.001310769779754491  10.681358322494434 2.2851465535735347  10.681358322494434 5.690917318428188  C 10.681358322494434 8.235191037579053  12.077737176297934 10.999874109650348  15.777144195949127 10.999874109650348  C 17.37303833391068 10.999874109650348  19.930046750528806 10.178468653027771  19.930046750528806 8.415445856243318  C 19.930046750528806 7.8744926876658825  19.47666517196636 7.27349652249388  18.841999269027305 7.27349652249388  C 17.772068846584055 7.27349652249388  17.772068846584055 8.715975442151725  15.777201174132147 8.715975380681614  C 14.288983783225413 8.715975380681614  13.392361518535866 7.670195455411896  13.33225626823312 6.209716305721738  C 13.332160637381083 6.2074099856717355  13.33211280316525 6.205101549648292  13.33211280316525 6.20279281120711  C 13.33211280316525 6.119340474314576  13.39327646767953 6.051645414583384  13.468817671151678 6.051489839461562  L 19.31349790664789 6.051489839461562  C 20.20208708217424 6.051489839461562  20.47412746946252 5.791051904104476  20.47412746946252 4.789328683642935  Z M 13.50357046779525 4.368650220839785  C 13.428087286953803 4.368502238533304  13.366967023961045 4.300861277287412  13.366967023961045 4.217473053104758  C 13.366967023961045 4.204189031542101  13.368551922788773 4.190962952222896  13.371680775098806 4.178136506602171  C 13.692773869326285 2.8662541949370244  14.477218611287958 2.0447228479647954  15.740967111658602 2.0447229094346495  C 16.86729964765097 2.0447229094346495  17.745292105277933 2.9410877094059797  17.947712887270296 4.1919199631484325  C 17.962639501936295 4.283998427021389  17.897691662505224 4.3687131660147385  17.813031541820006 4.3687131660147385  L 13.50357046779525 4.3687131660147385  Z M 34.9999999960515 1.363606511274669  C 35.00005697423452 0.6023069349517578  34.38345115217058 0.001310769779754491  33.71249420857497 0.001310769779754491  C 32.73320589267735 0.001310769779754491  32.56998170481859 0.582292582263447  32.4067574613171 1.4237123915743353  L 31.101077692242136 7.834589872639168  L 31.0647867072283 7.834589872639168  L 29.922274147829196 2.0046942040582834  C 29.6865817793805 0.8427305176207885  29.432601528610185 -0.03871793559661148  28.18132980360731 0.001310769779754491  C 26.948175137662574 -0.0387808193017109  26.730542850088995 0.8628078154837975  26.512967596341284 2.0046942040582834  L 25.388629074183335 7.834589872639168  L 25.35233803352677 7.834589872639168  L 23.955959124080543 1.4237123915743353  C 23.774617877163642 0.582292582263447  23.62951069272029 0.001310769779754491  22.65027941064831 0.001310769779754491  C 21.979322522695536 0.001310769779754491  21.3627167006316 0.6023069349517578  21.36271664498887 1.363606511274669  C 21.36271664498887 1.8043622104707182  21.453358807177114 2.1249060875975805  21.544057891905766 2.4454499032543326  L 23.48446054210269 9.417232021879558  C 23.865260094994618 10.799542054592928  24.155417430055575 10.999937054825047  25.207230849083416 10.999937054825047  C 26.313452312183227 10.999937054825047  26.58549269947151 10.639301588616975  26.85747605293392 9.47733790217948  L 28.163212800191904 3.7276883569362234  L 28.199503840848465 3.7276883569362234  L 29.50518360992331 9.47733790217948  C 29.77722394156886 10.639364533791928  30.049207350674124 10.999937054825047  31.155428813773934 10.999937054825047  C 32.207242232801775 10.999937054825047  32.497399623505345 10.799542054592928  32.878199120754665 9.417232021879558  L 34.81860177095158 2.4454499032543326  C 34.909300855680115 2.124906026127726  34.9999999960515 1.804362149000864  34.9999999960515 1.363606511274669  Z " fill-rule="nonzero" fill="#8a8a8a" stroke="none" transform="matrix(1 0 0 1 1004 468 )" />
  </g>
</svg>