<?xml version="1.0" encoding="utf-8"?>
<svg version="1.1" xmlns:xlink="http://www.w3.org/1999/xlink" width="49px" height="50px" xmlns="http://www.w3.org/2000/svg">
  <g transform="matrix(1 0 0 1 -876 -450 )">
    <path d="M 24.556863567067108 3.580372183233662  C 11.53620365777403 3.580372183233662  0.9402319096327203 13.993622025225541  0.9402319096327203 26.79018609161683  C 0.9402319096327203 39.58841681131187  11.534513979612973 50  24.556863567067108 50  C 37.577523476360184 50  48.17349522450161 39.58841681131187  48.17349522450161 26.79018609161683  C 48.17349522450161 13.993622025225541  37.577523476360184 3.580372183233662  24.556863567067108 3.580372183233662  Z M 24.556863567067108 46.96169102721652  C 13.239399244144035 46.96169102721652  4.0306532662505585 37.913430241017046  4.0306532662505585 26.79018609161683  C 4.0306532662505585 15.666941942216614  13.239399244144035 6.618681156017146  24.556863567067108 6.618681156017146  C 35.87432788999018 6.618681156017146  45.083073867883655 15.668608595520366  45.083073867883655 26.79018609161683  C 45.0813841897226 37.913430241017274  35.87432788999018 46.96169102721652  24.556863567067108 46.96169102721652  Z M 3.0624676799508843 9.688656541572374  C 3.9022377260083734 5.338691418717222  7.845946553972271 2.4103815639829578  11.838656048607517 3.1537089374670204  C 12.676736416503948 3.3070410414144753  13.486092255661948 2.7687120242948606  13.644922002803506 1.9437186389258159  C 13.803751749945182 1.1203919068605226  13.252916669432723 0.32539828095946816  12.414836301536292 0.16873287040450954  C 6.734138323980668 -0.8879253241894699  1.1835455648284021 3.128709137910515  0.02780570264873824 9.123661071592272  C -0.13271372265399287 9.946987803657565  0.4181213578584632 10.74198142955885  1.257891403915952 10.898646840113578  C 1.3542030590975909 10.916980026455308  1.452204392440286 10.925313292974066  1.5468263694608682 10.925313292974066  C 2.2750776568869737 10.925313292974066  2.9222243925810685 10.416984035322441  3.0624676799508843 9.688656541572374  Z M 48.97271299469304 9.123661071592272  C 47.81528345435231 3.128709137910515  42.25455262623347 -0.881258710974233  36.58399271764442 0.17039952370826117  C 35.74591234974799 0.3270649342632198  35.19338759107436 1.1220585601642743  35.35390701637709 1.9453852922295674  C 35.512736763518774 2.7687120242948606  36.323782280837825 3.308707694718227  37.16186264873426 3.1553755907707717  C 41.154572143369506 2.41204821728694  45.0982809713334 5.340358072020973  45.93636133922983 9.691989848179878  C 46.07829430476059 10.418650688626192  46.7254410404548 10.926979946277816  47.45369232788091 10.926979946277816  C 47.550003983062545 10.926979946277816  47.64631563824418 10.918646679759059  47.744316971586876 10.90031349341756  C 48.58070766132214 10.74198142955885  49.131542741834714 9.946987803657565  48.97271299469304 9.123661071592272  Z M 36.330540993482174 26.273523567446215  L 36.330540993482174 26  L 25 26  L 25 14.556950841901662  C 25.560532394749437 13.718624230102602  24.86945402686717 13.036963028858043  24.016166555521107 13.036963028858043  C 23.162879084174932 13.036963028858043  22.470111038131602 13.716957576798622  23 14.556950841901662  L 23 27.79184472718608  C 22.470111038131602 28.63183799228912  23.161189406013875 29.310165886925947  24.016166555521107 29  L 36.330540993482174 29  C 37.183828464828224 29.310165886925947  37.87659651087167 28.63183799228912  37.87659651087167 27.79184472718608  C 37.87659651087167 26.9535181153868  37.18551814298928 26.273523567446215  36.330540993482174 26.273523567446215  Z " fill-rule="nonzero" fill="#8a8a8a" stroke="none" transform="matrix(1 0 0 1 876 450 )" />
  </g>
</svg>