<?xml version="1.0" encoding="utf-8"?>
<svg version="1.1" xmlns:xlink="http://www.w3.org/1999/xlink" width="16px" height="18px" xmlns="http://www.w3.org/2000/svg">
  <g transform="matrix(1 0 0 1 -681 -587 )">
    <path d="M 14.222222222222229 6.222222282489156  L 14.222222222222229 7.111111166742091  L 15.111111111111086 7.111111166742091  C 15.602030888738454 7.111111166742091  16 7.509080275928056  16 8.000000050995084  L 16 16.88888889352478  C 16 17.379808668591807  15.602030888738454 17.77777777777777  15.111111111111086 17.77777777777777  L 0.8888888888889142 17.77777777777777  C 0.39796911126154555 17.77777777777777  0 17.379808668591807  0 16.88888889352478  L 0 8.000000050995084  C 0 7.509080275928056  0.39796911126154555 7.111111166742091  0.8888888888889142 7.111111166742091  L 1.7777777777777715 7.111111166742091  L 1.7777777777777715 6.222222282489156  C 1.7777777777777715 2.785783764301641  4.56356155660842 0  8 0  C 11.43643844339158 0  14.222222222222229 2.785783764301641  14.222222222222229 6.2222221897707755  Z M 14.222222222222229 9  L 1.7777777777777715 9  L 1.7777777777777715 16  L 14.222222222222229 16  L 14.222222222222229 9  Z M 7.111111111111086 14.22222224076586  L 7.111111111111086 10.666666703754004  L 8.888888888888914 10.666666703754004  L 8.888888888888914 14.22222224076586  L 7.111111111111086 14.22222224076586  Z M 3.555555555555543 7.111111166742091  L 12.444444444444457 7.111111166742091  L 12.444444444444457 6.222222282489156  C 12.444444444444457 3.7676234071540193  10.454598888136843 1.7777778612243083  8 1.7777778612243083  C 5.545401111863157 1.7777778612243083  3.555555555555543 3.7676234071540193  3.555555555555543 6.222222282489156  L 3.555555555555543 7.111111166742091  Z " fill-rule="nonzero" fill="#2561ef" stroke="none" transform="matrix(1 0 0 1 681 587 )" />
  </g>
</svg>