<?xml version="1.0" encoding="utf-8"?>
<svg version="1.1" xmlns:xlink="http://www.w3.org/1999/xlink" width="24px" height="27px" xmlns="http://www.w3.org/2000/svg">
  <g transform="matrix(1 0 0 1 -817 -330 )">
    <path d="M 24 25.65  C 24 26.39558441227157  23.403046333107724 27  22.666666666666664 27  L 1.3333333333333333 27  C 0.5969536668922757 27  0 26.39558441227157  0 25.65  L 0 1.35  C 0 0.6044155877284292  0.5969536668922757 0  1.3333333333333333 0  L 22.666666666666664 0  C 23.403046333107724 0  24 0.6044155877284292  24 1.35  L 24 25.65  Z M 3 24  L 21 24  L 21 3  L 3 3  L 3 24  Z M 5.333333333333333 5.4  L 8 5.4  L 8 8.1  C 8 10.336753236814712  9.790861000676827 12.15  12 12.15  C 14.209138999323173 12.15  16 10.336753236814712  16 8.1  L 16 5.4  L 18.666666666666668 5.4  L 18.666666666666668 8.099999999999998  C 18.666666666666668 11.827922061357855  15.68189833220529 14.849999999999998  12 14.849999999999998  C 8.31810166779471 14.849999999999998  5.333333333333332 11.827922061357855  5.333333333333333 8.1  L 5.333333333333333 5.4  Z " fill-rule="nonzero" fill="#2561ef" stroke="none" transform="matrix(1 0 0 1 817 330 )" />
  </g>
</svg>