<?xml version="1.0" encoding="utf-8"?>
<svg version="1.1" xmlns:xlink="http://www.w3.org/1999/xlink" width="16px" height="18px" xmlns="http://www.w3.org/2000/svg">
  <g transform="matrix(1 0 0 1 -681 -524 )">
    <path d="M 0.35022222222222155 16.821333333333314  C 1.8986666666666636 14.732444444444411  4.7448888888888945 13.333333333333258  8 13.333333333333258  C 11.255111111111106 13.333333333333258  14.10222222222221 14.733333333333292  15.650666666666666 16.822222222222194  L 14.013333333333335 17.596444444444444  C 12.752888888888876 16.103111111111104  10.530666666666669 15.111111111111086  8 15.111111111111086  C 5.4693333333333385 15.111111111111086  3.24711111111111 16.103111111111104  1.9866666666666717 17.596444444444444  L 0.35022222222222155 16.821333333333314  Z M 7.807111111111112 0.004444444444402507  L 8 0  C 10.454598888136857 0  12.444444444444443 1.9898455563075572  12.444444444444443 4.444444444444457  L 12.444444444444443 7.111111111111143  C 12.444306967045776 9.490593442184206  10.570129218997096 11.447841581741613  8.192888888888888 11.551111111111084  L 8 11.555555555555543  C 5.545401111863143 11.555555555555543  3.555555555555557 9.565709999247929  3.555555555555557 7.111111111111143  L 3.555555555555557 4.4444444444444  C 3.555693032954238 2.0649621133713367  5.429870781002897 0.10771397381392944  7.807111111111112 0.004444444444402507  Z M 10.666666666666657 4.4444444444444  C 10.666666666666657 2.9716851115622944  9.472759332882113 1.7777777777777715  8 1.7777777777777715  C 6.587948790783166 1.7776991188804345  5.420618113322838 2.8783808661752346  5.337777777777774 4.288000000000011  L 5.333333333333329 4.444444444444457  L 5.333333333333329 7.111111111111143  C 5.333332507746313 7.111967764234464  5.3333320949527305 7.112824417706918  5.3333320949527305 7.113681071228086  C 5.3333320949527305 8.586440404110135  6.527239428737289 9.780347737894772  7.999998761619395 9.780347737894772  C 9.412986178036014 9.780347737894772  10.580688705948859 8.678188649125843  10.662222222222226 7.267555555555589  L 10.666666666666657 7.111111111111143  L 10.666666666666657 4.4444444444444  Z " fill-rule="nonzero" fill="#cccccc" stroke="none" transform="matrix(1 0 0 1 681 524 )" />
  </g>
</svg>