<?xml version="1.0" encoding="utf-8"?>
<svg version="1.1" xmlns:xlink="http://www.w3.org/1999/xlink" width="37px" height="50px" xmlns="http://www.w3.org/2000/svg">
  <g transform="matrix(1 0 0 1 -536 -451 )">
    <path d="M 36.999988453595385 21.15533729645913  C 37.00628310967798 17.905143447919368  34.4380634279721 15.275264926337606  31.28444073058341 15.275264926337606  L 22.58522602441307 15.275264926337606  C 19.43160332702427 15.275264926337606  16.869678301401088 17.91160506590849  16.869678301401088 21.142414060480768  L 16.869678301401088 24.767381752390776  C 16.869678301401088 25.639700180925317  17.05851798387943 26.499095373481495  17.423608036670924 27.287412768157193  C 17.171821793366433 27.73972602739728  16.813026396657527 28.211424140604848  16.315748566131138 28.456965624192378  L 16.309453910048543 28.4634272421815  C 15.818470735604858 28.715430343758154  15.547800524052475 29.258206254846204  15.629631053126404 29.820367019901862  C 15.71775623828304 30.37606616696828  16.139498195818096 30.808994572240987  16.67454396284004 30.89299560609983  C 16.995571423053278 30.944688550012945  17.31659888326651 30.970535021969553  17.63762634347975 30.970535021969553  C 18.651065972780426 30.970535021969553  19.58896972908965 30.712070302403777  20.426158988077056 30.20806409925047  C 21.112276501081787 30.498836908761984  21.842456606664896 30.64099250452318  22.58522602441307 30.6474541225123  L 31.28444073058341 30.6474541225123  C 34.4380634279722 30.6474541225123  36.999988453595385 28.01111398294142  36.999988453595385 24.780304988369142  L 36.999988453595385 21.15533729645913  Z M 34.77797485643322 21.239338330317977  L 34.77168020035063 24.689842336521057  C 34.77168020035063 26.776944947014762  33.11618565062359 28.476350478159752  31.083011735939767 28.476350478159752  L 22.77406570689141 28.476350478159752  C 22.163484066878016 28.476350478159752  21.590670363360402 28.32773326440943  21.05562459633834 28.036960454897912  C 20.75348110437288 27.87542000516935  20.39468570766398 27.901266477125848  20.11772084002912 28.10803825277851  C 19.752630787237504 28.379426208322656  19.356067454032935 28.573274747996958  18.934325496497877 28.683122253812414  C 19.249058300628523 28.269578702507197  19.48196057568524 27.83665029723449  19.651916289915686 27.468338071853253  C 19.7715147554854 27.19695011630911  19.752630787237504 26.8803308348411  19.607853697337426 26.628327733264445  C 19.26794226887641 26.046782114241417  19.091691898563255 25.38123546135954  19.091691898563255 24.702765572499423  L 19.091691898563255 21.239338330317977  C 19.091691898563255 19.15223571982427  20.74718644829029 17.452830188679282  22.78036036297412 17.452830188679282  L 31.08930639202236 17.452830188679282  C 33.12248030670619 17.452830188679282  34.77797485643322 19.15223571982427  34.77797485643322 21.239338330317977  Z M 23.83786258485294 22.912897389506348  C 23.83786258485294 22.07288705091754  23.17692369617869 21.394417162057422  22.358618405439064 21.394417162057422  C 22.11312681821716 21.394417162057422  21.867635230995266 21.459033341948892  21.653616924186437 21.5818040837426  C 21.23816962273409 21.814422331351764  20.942320786851223 22.24088911863535  20.88566888210778 22.73843370379942  L 20.88566888210778 23.10028431119153  C 20.942320786851223 23.604290514344836  21.23816962273409 24.030757301628306  21.653616924186437 24.256913931248462  C 21.861340574912674 24.373223055053046  22.10683216213457 24.444300852933644  22.358618405439064 24.444300852933644  C 23.17692369617869 24.444300852933644  23.83786258485294 23.75936934608428  23.83786258485294 22.912897389506348  Z M 28.395193588664284 23.022744895321807  C 28.401488244746876 22.182734556733003  27.740549356072627 21.50426466787288  26.915949409250405 21.50426466787288  C 26.09764411851078 21.50426466787288  25.43670522983653 22.182734556733003  25.43670522983653 23.022744895321807  C 25.43670522983653 23.862755233910615  26.09764411851078 24.541225122770737  26.915949409250405 24.541225122770737  C 27.734254699990036 24.541225122770737  28.395193588664284 23.85629361592149  28.395193588664284 23.022744895321807  Z M 32.958819248558214 23.113207547169775  C 32.958819248558214 22.273197208581088  32.29788035988397 21.59472731972085  31.479575069144342 21.59472731972085  C 31.378860571822518 21.59472731972085  31.2781460745007 21.607650555699216  31.183726233261584 21.627035409666586  C 31.08930639202236 21.646420263634074  30.994886550783246 21.678728353579814  30.90676136562661 21.71749806151467  C 30.37171559860455 21.95011630912384  30.00033088973046 22.492892220212006  30.00033088973046 23.119669165159017  C 30.00033088973046 23.733522874127665  30.359126286439366 24.282760403204957  30.90676136562661 24.521840268803363  C 30.994886550783246 24.560609976738228  31.08930639202236 24.59291806668396  31.183726233261584 24.612302920651334  C 31.2781460745007 24.631687774618825  31.378860571822518 24.64461101059707  31.479575069144342 24.64461101059707  C 32.29788035988397 24.64461101059707  32.96511390464081 23.959679503747708  32.958819248558214 23.113207547169775  Z M 29.50305305920407 34.64719565779279  C 29.49675840312148 33.878263117084586  28.892471419190674 33.25148617213757  28.1371126892772 33.25148617213757  C 27.388048615446316 33.25148617213757  26.777466975432915 33.878263117084586  26.777466975432915 34.64719565779279  L 26.777466975432915 36  L 3 36  L 3 13  L 28.14340734535979 13  C 28.892471419190674 12.205996381493895  29.50305305920407 11.57921943654688  29.50305305920407 10.810286895838672  L 29.50305305920407 6.474541225122804  C 29.50305305920407 2.9077280951150266  26.676752478111098 0  23.195807664426468 0  L 6.307245394777603 0  C 2.832595237175565 0  0 2.901266477125903  0 6.474541225122804  L 0 43.525458774877315  C 0 47.09227190488509  2.8263005810929727 50  6.307245394777603 50  L 23.195807664426468 50  C 26.670457822028506 50  29.50305305920407 47.09873352287421  29.50305305920407 43.525458774877315  L 29.50305305920407 34.64719565779279  Z M 2.719291427688561 10  L 2.719291427688561 6.474541225122804  C 2.719291427688561 4.445593176531444  4.330723384837333 2.7914189713104443  6.307245394777603 3  L 23.195807664426468 3  C 25.17232967436674 2.7914189713104443  26.78376163151551 4.445593176531444  26.78376163151551 6.474541225122804  L 26.78376163151551 10  L 2.719291427688561 10  Z M 26.777466975432915 43.525458774877315  C 26.777466975432915 45.554406823468675  25.17232967436674 47.20858102868967  23.195807664426468 47  L 6.307245394777603 47  C 4.330723384837333 47.20858102868967  2.719291427688561 45.554406823468675  2.719291427688561 43.525458774877315  L 2.719291427688561 39  L 26.777466975432915 39  L 26.777466975432915 43.525458774877315  Z M 17.045928671714243 43.460842594985834  C 17.05222332779684 42.16205737916783  16.019899730248383 41.102352028948104  14.74837920156074 41.102352028948104  C 13.47685867287298 41.102352028948104  12.450829731407234 42.1555957611787  12.450829731407234 43.460842594985834  C 12.450829731407234 44.766089428792974  13.47685867287298 45.81933316102357  14.74837920156074 45.81933316102357  C 16.013605074165792 45.81933316102357  17.045928671714243 44.766089428792974  17.045928671714243 43.460842594985834  Z " fill-rule="nonzero" fill="#999999" stroke="none" transform="matrix(1 0 0 1 536 451 )" />
  </g>
</svg>