<?xml version="1.0" encoding="utf-8"?>
<svg version="1.1" xmlns:xlink="http://www.w3.org/1999/xlink" width="30px" height="16px" xmlns="http://www.w3.org/2000/svg">
  <g transform="matrix(1 0 0 1 -653 -467 )">
    <path d="M 8.866666736964817 0  L 6.111111153348702 0  L 0 16  L 2.577777813624607 16  L 4.066666699281427 11.876750700000002  L 10.888888932595592 11.876750700000002  L 12.377777867835789 16  L 14.977777890313519 16  L 8.866666736964817 0  Z M 10.155555594193743 9.859944000000041  L 4.800000037683276 9.859944000000041  L 7.4444444778672505 2.6218487500000265  L 7.533333362863004 2.6218487500000265  L 10.155555594193743 9.859944000000041  Z M 22.31111137349876 0  L 16 0  L 16 16  L 22.266666906209252 16  C 24.82222241181421 16  26.75555577203272 15.282913199999939  28.088888898217874 13.848739499999965  C 29.355555645760546 12.459383750000029  30 10.509803949999991  30 8  C 30 5.467787150000049  29.377777904196932 3.518207299999972  28.133333315924006 2.173669450000034  C 26.800000189738967 0.7170868500001006  24.86666682952034 0  22.31111137349876 0  Z M 19 13.915966400000002  L 19 2.084033649999924  L 21.86666665102041 2.084033649999924  C 23.86666668738144 2.084033649999924  25.333333413768514 2.5546218499999895  26.266666929348162 3.518207299999972  C 27.155555680138264 4.459383750000029  27.622222264386437 5.938375350000001  27.622222264386437 8  C 27.622222264386437 10.016806700000075  27.155555680138264 11.495798350000086  26.24444472049504 12.459383750000029  C 25.311111204915505 13.422969200000011  23.822222220092044 13.915966400000002  21.822222233314164 13.915966400000002  L 19 13.915966400000002  Z " fill-rule="nonzero" fill="#999999" stroke="none" transform="matrix(1 0 0 1 653 467 )" />
  </g>
</svg>