<?xml version="1.0" encoding="utf-8"?>
<svg version="1.1" xmlns:xlink="http://www.w3.org/1999/xlink" width="50px" height="50px" xmlns="http://www.w3.org/2000/svg">
  <g transform="matrix(1 0 0 1 -996 -448 )">
    <path d="M 49.97098945102109 26.12437233829123  C 50.13964795610215 22.478574897491136  49.572315981182655 18.955771640258803  48.28451876703755 15.65362601669695  C 47.04100585415294 12.465097121649684  45.18587666508845 9.626109574379123  42.77063381596811 7.215514728467203  C 40.35544826216621 4.8049198267090105  37.51105430293571 2.953373951726413  34.316453285741986 1.7121674534707012  C 31.00807646765525 0.42676082712196084  27.478679098588966 -0.13937847735793615  23.825881434207993 0.028959506746353853  C 17.397436471091567 0.3255522102440782  11.40043420700668 3.0498937852316663  6.939576553432356 7.700172495222091  C 2.4645112835463183 12.365375184009963  0 18.492670694535892  0 24.953440069136168  C 0 27.832739515083414  0.48735666299596836 30.65548785186954  1.4486072118137723 33.343291440613285  C 2.369068026166413 35.916906548389875  3.7023526313508666 38.31069048721106  5.41311378861408 40.460658863416526  C 5.418957239649014 40.467977886778975  5.424055963451149 40.475754401457465  5.428409904068214 40.48404553801991  C 6.116277744103197 41.81125074228373  4.926616387534944 45.306664778514005  4.3507483613838005 46.99850692444151  C 4.165877071708544 47.54165985921965  4.006212924453022 48.010764652464296  3.905040750722218 48.37608771940962  L 3.88773946698572 48.43858548967781  C 3.8859110783937703 48.44518454044329  3.8845896030898026 48.451913162400366  3.8837865376441014 48.458712817886045  L 3.876052564915853 48.52309751644776  C 3.8011186814763684 49.146016564054605  4.175444382716794 49.701177249722015  4.807455498153173 49.904509410263366  C 5.0126070364481565 49.970495160892554  5.242450115250652 50  5.488104967371895 50  C 6.414523823396011 49.99994281358558  7.564312058686652 49.580241553691025  8.448279783872865 49.115596798161334  C 9.78442881925663 48.41319756979811  10.931982816896724 47.421124356397975  11.754193183035968 46.26974766299834  C 11.79573700710213 46.21096635845943  11.875904574992825 46.19454270695132  11.937288485701943 46.23223756355449  C 15.862265713134263 48.63768624647004  20.358928912055653 49.904966789887105  24.999100880861594 49.90496684573314  C 31.472173917148144 49.90496684573314  37.611195328794935 47.44513996986836  42.28516767466557 42.97858065824921  C 46.94430221167574 38.526259144299594  49.67388922214142 32.54065565272615  49.97098945102109 26.12437233829123  Z M 47.97298174057308 26.032026610428606  C 47.40479039183187 38.29931167518926  37.313464907366615 47.908583922386164  24.998928994906723 47.90858397823221  C 20.451393260504833 47.90858397823221  16.054699201487797 46.58635343356753  12.284401988145284 44.084899483184884  C 11.993273491941247 43.892161764635766  11.634775708124117 43.82940659163078  11.295309103934258 43.9117583987247  C 10.956366354626097 43.99503126860796  10.667612312107549 44.21569289293149  10.498649596171864 44.52055396564504  C 9.444992106128106 46.42653527583733  7.5961073793738825 47.4319313601214  6.41521125531048 47.817667743193326  C 6.308138279274021 47.85266191963039  6.2074244121368745 47.74968069144179  6.243688264077711 47.64321153873847  L 6.244547637899442 47.64058124290261  C 7.0776428276051515 45.192819360187556  8.336566446580438 41.49373015662126  7.125765523523117 39.4232991475866  C 7.0949171259646535 39.370563464092854  7.060220865400703 39.3201660270034  7.021958044913691 39.27251543811538  C 3.736611370961847 35.16916351948989  2.000070174048698 30.217717695457953  2.000070174048698 24.953382882721513  C 2.000070174048698 12.662310950148392  11.627699276249004 2.5901093164720566  23.918288431386454 2.0230551410523745  C 30.58809154537288 1.7151408119472598  36.78130828524566 4.060664834016054  41.356399990354255 8.627060456103756  C 45.93143440014464 13.193398891777038  48.28119603024469 19.374615215628232  47.97298174057308 26.032026610428606  Z " fill-rule="nonzero" fill="#8a8a8a" stroke="none" transform="matrix(1 0 0 1 996 448 )" />
  </g>
</svg>