<?xml version="1.0" encoding="utf-8"?>
<svg version="1.1" xmlns:xlink="http://www.w3.org/1999/xlink" width="50px" height="39px" xmlns="http://www.w3.org/2000/svg">
  <g transform="matrix(1 0 0 1 -643 -455 )">
    <path d="M 3.125 6.527723160156256  L 4 6.527723160156256  L 4 32.472276839843744  C 3.125 34.28267633984376  4.524424072265674 35.75  6.231438378906205 35  L 43.76856157226564 35  C 45.47598251953127 35.75  46.875 34.28534783984378  46 32.472276839843744  L 46 6.527723160156256  C 46.875 4.717323761718831  45.47557592773444 3.25  43.76856157226564 4  L 6.231438378906205 4  C 4.524017382812531 3.25  3.125 4.714652058593742  3.125 6.527723160156256  Z M 0 6.527723160156256  C 0 2.9225611796874773  2.7953554687500173 0  6.231438378906205 0  L 43.76856157226564 0  C 47.21008999023434 0  50 2.9313386679688165  50 6.527723160156256  L 50 32.472276839843744  C 50 36.07743882031252  47.20464438476563 39  43.76856157226564 39  L 6.231438378906205 39  C 2.789910009765663 39  0 36.06866117968741  0 32.472276839843744  L 0 6.527723160156256  Z " fill-rule="nonzero" fill="#999999" stroke="none" transform="matrix(1 0 0 1 643 455 )" />
  </g>
</svg>