<?xml version="1.0" encoding="utf-8"?>
<svg version="1.1" xmlns:xlink="http://www.w3.org/1999/xlink" width="13px" height="13px" viewBox="475 200  13 13" xmlns="http://www.w3.org/2000/svg">
  <path d="M 481.5 200  C 485.14 200  488 202.86  488 206.5  C 488 210.14  485.14 213  481.5 213  C 477.86 213  475 210.14  475 206.5  C 475 202.86  477.86 200  481.5 200  Z " fill-rule="nonzero" fill="#f0f0f0" stroke="none" />
  <path d="M 481.5 200.5  C 484.86 200.5  487.5 203.14  487.5 206.5  C 487.5 209.86  484.86 212.5  481.5 212.5  C 478.14 212.5  475.5 209.86  475.5 206.5  C 475.5 203.14  478.14 200.5  481.5 200.5  Z " stroke-width="1" stroke="#797979" fill="none" />
  <path d="M 481.5 209.75  C 479.68 209.75  478.25 208.32  478.25 206.5  C 478.25 204.68  479.68 203.25  481.5 203.25  C 483.32 203.25  484.75 204.68  484.75 206.5  C 484.75 208.32  483.32 209.75  481.5 209.75  " fill-rule="nonzero" fill="#797979" stroke="none" />
</svg>