<?xml version="1.0" encoding="utf-8"?>
<svg version="1.1" xmlns:xlink="http://www.w3.org/1999/xlink" width="12px" height="10px" xmlns="http://www.w3.org/2000/svg">
  <g transform="matrix(1 0 0 1 -314 -78 )">
    <path d="M 5.333333333333333 1.25  L 5.333333333333333 0  L 12 0  L 12 1.25  L 5.333333333333333 1.25  Z M 5.333333333333333 3.75  L 5.333333333333333 2.5  L 9.333333333333334 2.5  L 9.333333333333334 3.75  L 5.333333333333333 3.75  Z M 5.333333333333333 7.5  L 5.333333333333333 6.25  L 12 6.25  L 12 7.5  L 5.333333333333333 7.5  Z M 5.333333333333333 10  L 5.333333333333333 8.75  L 9.333333333333334 8.75  L 9.333333333333334 10  L 5.333333333333333 10  Z M 0 3.75  L 0 0  L 4 0  L 4 3.75  L 0 3.75  Z M 2.6666666666666665 1.25  L 1.3333333333333333 1.25  L 1.3333333333333333 2.5  L 2.6666666666666665 2.5  L 2.6666666666666665 1.25  Z M 0 10  L 0 6.25  L 4 6.25  L 4 10  L 0 10  Z M 2.6666666666666665 7.5  L 1.3333333333333333 7.5  L 1.3333333333333333 8.75  L 2.6666666666666665 8.75  L 2.6666666666666665 7.5  Z " fill-rule="nonzero" fill="#666666" stroke="none" transform="matrix(1 0 0 1 314 78 )" />
  </g>
</svg>