<?xml version="1.0" encoding="utf-8"?>
<svg version="1.1" xmlns:xlink="http://www.w3.org/1999/xlink" width="13px" height="13px" viewBox="475 235  13 13" xmlns="http://www.w3.org/2000/svg">
  <path d="M 481.5 235  C 485.14 235  488 237.86  488 241.5  C 488 245.14  485.14 248  481.5 248  C 477.86 248  475 245.14  475 241.5  C 475 237.86  477.86 235  481.5 235  Z " fill-rule="nonzero" fill="#ffffff" stroke="none" />
  <path d="M 481.5 235.5  C 484.86 235.5  487.5 238.14  487.5 241.5  C 487.5 244.86  484.86 247.5  481.5 247.5  C 478.14 247.5  475.5 244.86  475.5 241.5  C 475.5 238.14  478.14 235.5  481.5 235.5  Z " stroke-width="1" stroke="#797979" fill="none" />
  <path d="M 481.5 244.75  C 479.68 244.75  478.25 243.32  478.25 241.5  C 478.25 239.68  479.68 238.25  481.5 238.25  C 483.32 238.25  484.75 239.68  484.75 241.5  C 484.75 243.32  483.32 244.75  481.5 244.75  " fill-rule="nonzero" fill="#797979" stroke="none" />
</svg>