<?xml version="1.0" encoding="utf-8"?>
<svg version="1.1" xmlns:xlink="http://www.w3.org/1999/xlink" width="13px" height="13px" viewBox="475 166  13 13" xmlns="http://www.w3.org/2000/svg">
  <path d="M 481.5 166  C 485.14 166  488 168.86  488 172.5  C 488 176.14  485.14 179  481.5 179  C 477.86 179  475 176.14  475 172.5  C 475 168.86  477.86 166  481.5 166  Z " fill-rule="nonzero" fill="#ffffff" stroke="none" />
  <path d="M 481.5 166.5  C 484.86 166.5  487.5 169.14  487.5 172.5  C 487.5 175.86  484.86 178.5  481.5 178.5  C 478.14 178.5  475.5 175.86  475.5 172.5  C 475.5 169.14  478.14 166.5  481.5 166.5  Z " stroke-width="1" stroke="#797979" fill="none" />
  <path d="M 481.5 175.75  C 479.68 175.75  478.25 174.32  478.25 172.5  C 478.25 170.68  479.68 169.25  481.5 169.25  C 483.32 169.25  484.75 170.68  484.75 172.5  C 484.75 174.32  483.32 175.75  481.5 175.75  " fill-rule="nonzero" fill="#797979" stroke="none" />
</svg>