<?xml version="1.0" encoding="utf-8"?>
<svg version="1.1" xmlns:xlink="http://www.w3.org/1999/xlink" width="13px" height="13px" viewBox="475 277  13 13" xmlns="http://www.w3.org/2000/svg">
  <path d="M 481.5 277  C 485.14 277  488 279.86  488 283.5  C 488 287.14  485.14 290  481.5 290  C 477.86 290  475 287.14  475 283.5  C 475 279.86  477.86 277  481.5 277  Z " fill-rule="nonzero" fill="#f0f0f0" stroke="none" />
  <path d="M 481.5 277.5  C 484.86 277.5  487.5 280.14  487.5 283.5  C 487.5 286.86  484.86 289.5  481.5 289.5  C 478.14 289.5  475.5 286.86  475.5 283.5  C 475.5 280.14  478.14 277.5  481.5 277.5  Z " stroke-width="1" stroke="#797979" fill="none" />
  <path d="M 481.5 286.75  C 479.68 286.75  478.25 285.32  478.25 283.5  C 478.25 281.68  479.68 280.25  481.5 280.25  C 483.32 280.25  484.75 281.68  484.75 283.5  C 484.75 285.32  483.32 286.75  481.5 286.75  " fill-rule="nonzero" fill="#797979" stroke="none" />
</svg>