<?xml version="1.0" encoding="utf-8"?>
<svg version="1.1" xmlns:xlink="http://www.w3.org/1999/xlink" width="16px" height="16px" xmlns="http://www.w3.org/2000/svg">
  <g transform="matrix(1 0 0 1 -155 -1600 )">
    <path d="M 163 1604  C 165.24 1604  167 1605.76  167 1608  C 167 1610.24  165.24 1612  163 1612  C 160.76 1612  159 1610.24  159 1608  C 159 1605.76  160.76 1604  163 1604  Z " fill-rule="nonzero" fill="#ffffff" stroke="none" />
    <path d="M 163 1602.5  C 166.08 1602.5  168.5 1604.92  168.5 1608  C 168.5 1611.08  166.08 1613.5  163 1613.5  C 159.92 1613.5  157.5 1611.08  157.5 1608  C 157.5 1604.92  159.92 1602.5  163 1602.5  Z " stroke-width="5" stroke="#2561ef" fill="none" />
  </g>
</svg>