<?xml version="1.0" encoding="utf-8"?>
<svg version="1.1" xmlns:xlink="http://www.w3.org/1999/xlink" width="1190px" height="341px" xmlns="http://www.w3.org/2000/svg">
  <defs>
    <filter x="15px" y="1181px" width="1190px" height="341px" filterUnits="userSpaceOnUse" id="filter456">
      <feOffset dx="0" dy="0" in="SourceAlpha" result="shadowOffsetInner" />
      <feGaussianBlur stdDeviation="2.5" in="shadowOffsetInner" result="shadowGaussian" />
      <feComposite in2="shadowGaussian" operator="atop" in="SourceAlpha" result="shadowComposite" />
      <feColorMatrix type="matrix" values="0 0 0 0 0.8941176470588235  0 0 0 0 0.8941176470588235  0 0 0 0 0.8941176470588235  0 0 0 1 0  " in="shadowComposite" />
    </filter>
    <g id="widget457">
      <path d="M 21 1198  A 11 11 0 0 1 32 1187 L 1188 1187  A 11 11 0 0 1 1199 1198 L 1199 1505  A 11 11 0 0 1 1188 1516 L 32 1516  A 11 11 0 0 1 21 1505 L 21 1198  Z " fill-rule="nonzero" fill="#ffffff" stroke="none" />
      <path d="M 20.5 1198  A 11.5 11.5 0 0 1 32 1186.5 L 1188 1186.5  A 11.5 11.5 0 0 1 1199.5 1198 L 1199.5 1505  A 11.5 11.5 0 0 1 1188 1516.5 L 32 1516.5  A 11.5 11.5 0 0 1 20.5 1505 L 20.5 1198  Z " stroke-width="1" stroke="#f2f2f2" fill="none" stroke-opacity="0.9882352941176471" />
    </g>
  </defs>
  <g transform="matrix(1 0 0 1 -15 -1181 )">
    <use xlink:href="#widget457" filter="url(#filter456)" />
    <use xlink:href="#widget457" />
  </g>
</svg>