<?xml version="1.0" encoding="utf-8"?>
<svg version="1.1" xmlns:xlink="http://www.w3.org/1999/xlink" width="1190px" height="410px" xmlns="http://www.w3.org/2000/svg">
  <defs>
    <filter x="15px" y="765px" width="1190px" height="410px" filterUnits="userSpaceOnUse" id="filter290">
      <feOffset dx="0" dy="0" in="SourceAlpha" result="shadowOffsetInner" />
      <feGaussianBlur stdDeviation="2.5" in="shadowOffsetInner" result="shadowGaussian" />
      <feComposite in2="shadowGaussian" operator="atop" in="SourceAlpha" result="shadowComposite" />
      <feColorMatrix type="matrix" values="0 0 0 0 0.8941176470588235  0 0 0 0 0.8941176470588235  0 0 0 0 0.8941176470588235  0 0 0 1 0  " in="shadowComposite" />
    </filter>
    <g id="widget291">
      <path d="M 21 782  A 11 11 0 0 1 32 771 L 1188 771  A 11 11 0 0 1 1199 782 L 1199 1158  A 11 11 0 0 1 1188 1169 L 32 1169  A 11 11 0 0 1 21 1158 L 21 782  Z " fill-rule="nonzero" fill="#ffffff" stroke="none" />
      <path d="M 20.5 782  A 11.5 11.5 0 0 1 32 770.5 L 1188 770.5  A 11.5 11.5 0 0 1 1199.5 782 L 1199.5 1158  A 11.5 11.5 0 0 1 1188 1169.5 L 32 1169.5  A 11.5 11.5 0 0 1 20.5 1158 L 20.5 782  Z " stroke-width="1" stroke="#f2f2f2" fill="none" stroke-opacity="0.9882352941176471" />
    </g>
  </defs>
  <g transform="matrix(1 0 0 1 -15 -765 )">
    <use xlink:href="#widget291" filter="url(#filter290)" />
    <use xlink:href="#widget291" />
  </g>
</svg>