<?xml version="1.0" encoding="utf-8"?>
<svg version="1.1" xmlns:xlink="http://www.w3.org/1999/xlink" width="16px" height="16px" xmlns="http://www.w3.org/2000/svg">
  <g transform="matrix(1 0 0 1 -155 -1600 )">
    <path d="M 163 1600  C 167.48 1600  171 1603.52  171 1608  C 171 1612.48  167.48 1616  163 1616  C 158.52 1616  155 1612.48  155 1608  C 155 1603.52  158.52 1600  163 1600  Z " fill-rule="nonzero" fill="#ffffff" stroke="none" />
    <path d="M 163 1600.5  C 167.2 1600.5  170.5 1603.8  170.5 1608  C 170.5 1612.2  167.2 1615.5  163 1615.5  C 158.8 1615.5  155.5 1612.2  155.5 1608  C 155.5 1603.8  158.8 1600.5  163 1600.5  Z " stroke-width="1" stroke="#cccccc" fill="none" />
  </g>
</svg>