<?xml version="1.0" encoding="utf-8"?>
<svg version="1.1" xmlns:xlink="http://www.w3.org/1999/xlink" width="13px" height="13px" viewBox="41 546  13 13" xmlns="http://www.w3.org/2000/svg">
  <path d="M 47.5 546  C 51.14 546  54 548.86  54 552.5  C 54 556.14  51.14 559  47.5 559  C 43.86 559  41 556.14  41 552.5  C 41 548.86  43.86 546  47.5 546  Z " fill-rule="nonzero" fill="#f0f0f0" stroke="none" />
  <path d="M 47.5 546.5  C 50.86 546.5  53.5 549.14  53.5 552.5  C 53.5 555.86  50.86 558.5  47.5 558.5  C 44.14 558.5  41.5 555.86  41.5 552.5  C 41.5 549.14  44.14 546.5  47.5 546.5  Z " stroke-width="1" stroke="#797979" fill="none" />
  <path d="M 47.5 555.75  C 45.68 555.75  44.25 554.32  44.25 552.5  C 44.25 550.68  45.68 549.25  47.5 549.25  C 49.32 549.25  50.75 550.68  50.75 552.5  C 50.75 554.32  49.32 555.75  47.5 555.75  " fill-rule="nonzero" fill="#797979" stroke="none" />
</svg>