<?xml version="1.0" encoding="utf-8"?>
<svg version="1.1" xmlns:xlink="http://www.w3.org/1999/xlink" width="13px" height="13px" viewBox="41 592  13 13" xmlns="http://www.w3.org/2000/svg">
  <path d="M 47.5 592  C 51.14 592  54 594.86  54 598.5  C 54 602.14  51.14 605  47.5 605  C 43.86 605  41 602.14  41 598.5  C 41 594.86  43.86 592  47.5 592  Z " fill-rule="nonzero" fill="#f0f0f0" stroke="none" />
  <path d="M 47.5 592.5  C 50.86 592.5  53.5 595.14  53.5 598.5  C 53.5 601.86  50.86 604.5  47.5 604.5  C 44.14 604.5  41.5 601.86  41.5 598.5  C 41.5 595.14  44.14 592.5  47.5 592.5  Z " stroke-width="1" stroke="#797979" fill="none" />
  <path d="M 47.5 601.75  C 45.68 601.75  44.25 600.32  44.25 598.5  C 44.25 596.68  45.68 595.25  47.5 595.25  C 49.32 595.25  50.75 596.68  50.75 598.5  C 50.75 600.32  49.32 601.75  47.5 601.75  " fill-rule="nonzero" fill="#797979" stroke="none" />
</svg>