<?xml version="1.0" encoding="utf-8"?>
<svg version="1.1" xmlns:xlink="http://www.w3.org/1999/xlink" width="117px" height="84px" xmlns="http://www.w3.org/2000/svg">
  <g transform="matrix(1 0 0 1 -1362 -1446 )">
    <path d="M 1362 1446  L 1479 1446  L 1479 1530  L 1362 1530  L 1362 1446  " fill-rule="nonzero" fill="#cccccc" stroke="none" />
    <path d="M 1368 1452  L 1473 1452  L 1473 1524  L 1368 1524  L 1368 1452  " fill-rule="nonzero" fill="#ffffff" stroke="none" />
    <path d="M 1429.1399999999999 1471.1999999999998  C 1425.6119999999999 1471.1999999999998  1422.84 1468.4279999999999  1422.84 1464.8999999999999  C 1422.84 1461.3719999999998  1425.6119999999999 1458.6  1429.1399999999999 1458.6  C 1432.668 1458.6  1435.4399999999998 1461.3719999999998  1435.4399999999998 1464.8999999999999  C 1435.4399999999998 1468.4279999999999  1432.668 1471.1999999999998  1429.1399999999999 1471.1999999999998  " fill-rule="nonzero" fill="#cccccc" stroke="none" />
    <path d="M 1370 1522  L 1370 1484.6  L 1395.25 1467.6  L 1430.6 1492.7076923076922  L 1450.8 1477.8  L 1471 1492.7076923076922  L 1471 1522  L 1370 1522  " fill-rule="nonzero" fill="#169bd5" stroke="none" />
  </g>
</svg>