<?xml version="1.0" encoding="utf-8"?>
<svg version="1.1" xmlns:xlink="http://www.w3.org/1999/xlink" width="166px" height="243px" xmlns="http://www.w3.org/2000/svg">
  <g transform="matrix(1 0 0 1 -24 -993 )">
    <path d="M 24 993  L 190 993  L 190 1236  L 24 1236  L 24 993  " fill-rule="nonzero" fill="#cccccc" stroke="none" />
    <path d="M 36 1005  L 178 1005  L 178 1224  L 36 1224  L 36 1005  " fill-rule="nonzero" fill="#ffffff" stroke="none" />
    <path d="M 122.77000000000001 1054.3500000000001  C 115.798 1054.3500000000001  110.32000000000001 1048.872  110.32000000000001 1041.9  C 110.32000000000001 1034.928  115.798 1029.45  122.77000000000001 1029.45  C 129.74200000000002 1029.45  135.22 1034.928  135.22 1041.9  C 135.22 1048.872  129.74200000000002 1054.3500000000001  122.77000000000001 1054.3500000000001  " fill-rule="nonzero" fill="#cccccc" stroke="none" />
    <path d="M 40 1220  L 40 1103.95  L 73.5 1051.2  L 120.39999999999999 1093.4  L 147.2 1082.85  L 174 1093.4  L 174 1220  L 40 1220  " fill-rule="nonzero" fill="#169bd5" stroke="none" />
  </g>
</svg>