<?xml version="1.0" encoding="utf-8"?>
<svg version="1.1" xmlns:xlink="http://www.w3.org/1999/xlink" width="29px" height="27px" xmlns="http://www.w3.org/2000/svg">
  <g transform="matrix(1 0 0 1 -76 -789 )">
    <path d="M 90.5 789  C 98.62 789  105 794.94  105 802.5  C 105 810.06  98.62 816  90.5 816  C 82.38 816  76 810.06  76 802.5  C 76 794.94  82.38 789  90.5 789  Z " fill-rule="nonzero" fill="#ffffff" stroke="none" />
    <path d="M 90.5 789.5  C 98.34 789.5  104.5 795.22  104.5 802.5  C 104.5 809.78  98.34 815.5  90.5 815.5  C 82.66 815.5  76.5 809.78  76.5 802.5  C 76.5 795.22  82.66 789.5  90.5 789.5  Z " stroke-width="1" stroke="#797979" fill="none" />
  </g>
</svg>