<?xml version="1.0" encoding="utf-8"?>
<svg version="1.1" xmlns:xlink="http://www.w3.org/1999/xlink" width="166px" height="121px" xmlns="http://www.w3.org/2000/svg">
  <g transform="matrix(1 0 0 1 -194 -993 )">
    <path d="M 194 993  L 360 993  L 360 1114  L 194 1114  L 194 993  " fill-rule="nonzero" fill="#cccccc" stroke="none" />
    <path d="M 202 1001  L 352 1001  L 352 1106  L 202 1106  L 202 1001  " fill-rule="nonzero" fill="#ffffff" stroke="none" />
    <path d="M 289.395 1029.3  C 284.313 1029.3  280.32 1025.307  280.32 1020.2249999999999  C 280.32 1015.1429999999999  284.313 1011.15  289.395 1011.15  C 294.477 1011.15  298.46999999999997 1015.1429999999999  298.46999999999997 1020.2249999999999  C 298.46999999999997 1025.307  294.477 1029.3  289.395 1029.3  " fill-rule="nonzero" fill="#cccccc" stroke="none" />
    <path d="M 205 1103  L 205 1048.55  L 241 1023.8  L 291.4 1059.7024096385542  L 320.2 1038.65  L 349 1059.7024096385542  L 349 1103  L 205 1103  " fill-rule="nonzero" fill="#169bd5" stroke="none" />
  </g>
</svg>