<?xml version="1.0" encoding="utf-8"?>
<svg version="1.1" xmlns:xlink="http://www.w3.org/1999/xlink" width="336px" height="141px" xmlns="http://www.w3.org/2000/svg">
  <g transform="matrix(1 0 0 1 -24 -1246 )">
    <path d="M 24 1246  L 360 1246  L 360 1387  L 24 1387  L 24 1246  " fill-rule="nonzero" fill="#cccccc" stroke="none" />
    <path d="M 34 1256  L 350 1256  L 350 1377  L 34 1377  L 34 1256  " fill-rule="nonzero" fill="#ffffff" stroke="none" />
    <path d="M 209.29500000000002 1288.3000000000002  C 203.37300000000002 1288.3000000000002  198.72 1283.6470000000002  198.72 1277.7250000000001  C 198.72 1271.803  203.37300000000002 1267.15  209.29500000000002 1267.15  C 215.217 1267.15  219.87 1271.803  219.87 1277.7250000000001  C 219.87 1283.6470000000002  215.217 1288.3000000000002  209.29500000000002 1288.3000000000002  " fill-rule="nonzero" fill="#cccccc" stroke="none" />
    <path d="M 38 1374  L 38 1311.3  L 115.25 1282.8  L 223.4 1345.2964285714286  L 285.20000000000005 1299.9  L 347 1345.2964285714286  L 347 1374  L 38 1374  " fill-rule="nonzero" fill="#169bd5" stroke="none" />
  </g>
</svg>