<?xml version="1.0" encoding="utf-8"?>
<svg version="1.1" xmlns:xlink="http://www.w3.org/1999/xlink" width="147px" height="143px" xmlns="http://www.w3.org/2000/svg">
  <g transform="matrix(1 0 0 1 -16 -350 )">
    <path d="M 16 350  L 163 350  L 163 493  L 16 493  L 16 350  " fill-rule="nonzero" fill="#cccccc" stroke="none" />
    <path d="M 26 360  L 153 360  L 153 483  L 26 483  L 26 360  " fill-rule="nonzero" fill="#ffffff" stroke="none" />
    <path d="M 103.16499999999999 392.9  C 97.15899999999999 392.9  92.44 388.181  92.44 382.17499999999995  C 92.44 376.169  97.15899999999999 371.45  103.16499999999999 371.45  C 109.17099999999999 371.45  113.89 376.169  113.89 382.17499999999995  C 113.89 388.181  109.17099999999999 392.9  103.16499999999999 392.9  " fill-rule="nonzero" fill="#cccccc" stroke="none" />
    <path d="M 30 480  L 30 416.2  L 60 387.2  L 102 412.2938775510204  L 126 404.6  L 150 412.2938775510204  L 150 480  L 30 480  " fill-rule="nonzero" fill="#169bd5" stroke="none" />
  </g>
</svg>