<?xml version="1.0" encoding="utf-8"?>
<svg version="1.1" xmlns:xlink="http://www.w3.org/1999/xlink" width="147px" height="160px" xmlns="http://www.w3.org/2000/svg">
  <g transform="matrix(1 0 0 1 -466 -350 )">
    <path d="M 466 350  L 613 350  L 613 510  L 466 510  L 466 350  " fill-rule="nonzero" fill="#cccccc" stroke="none" />
    <path d="M 476 360  L 603 360  L 603 500  L 476 500  L 476 360  " fill-rule="nonzero" fill="#ffffff" stroke="none" />
    <path d="M 553.465 396.05  C 547.291 396.05  542.44 391.199  542.44 385.025  C 542.44 378.851  547.291 374  553.465 374  C 559.639 374  564.49 378.851  564.49 385.025  C 564.49 391.199  559.639 396.05  553.465 396.05  " fill-rule="nonzero" fill="#cccccc" stroke="none" />
    <path d="M 480 497  L 480 423.85  L 510 390.6  L 552 417.2  L 576 410.55  L 600 417.2  L 600 497  L 480 497  " fill-rule="nonzero" fill="#169bd5" stroke="none" />
  </g>
</svg>