<?xml version="1.0" encoding="utf-8"?>
<svg version="1.1" xmlns:xlink="http://www.w3.org/1999/xlink" width="25px" height="25px" xmlns="http://www.w3.org/2000/svg">
  <g transform="matrix(1 0 0 1 -16 -317 )">
    <path d="M 28.5 317  C 35.5 317  41 322.5  41 329.5  C 41 336.5  35.5 342  28.5 342  C 21.5 342  16 336.5  16 329.5  C 16 322.5  21.5 317  28.5 317  Z " fill-rule="nonzero" fill="#ffffff" stroke="none" />
    <path d="M 28.5 317.5  C 35.22 317.5  40.5 322.78  40.5 329.5  C 40.5 336.22  35.22 341.5  28.5 341.5  C 21.78 341.5  16.5 336.22  16.5 329.5  C 16.5 322.78  21.78 317.5  28.5 317.5  Z " stroke-width="1" stroke="#797979" fill="none" />
  </g>
</svg>