<?xml version="1.0" encoding="utf-8"?>
<svg version="1.1" xmlns:xlink="http://www.w3.org/1999/xlink" width="90px" height="107px" xmlns="http://www.w3.org/2000/svg">
  <g transform="matrix(1 0 0 1 -439 -3812 )">
    <path d="M 439 3812  L 529 3812  L 529 3919  L 439 3919  L 439 3812  " fill-rule="nonzero" fill="#cccccc" stroke="none" />
    <path d="M 445 3818  L 523 3818  L 523 3913  L 445 3913  L 445 3818  " fill-rule="nonzero" fill="#ffffff" stroke="none" />
    <path d="M 492.55 3841.55  C 488.77000000000004 3841.55  485.8 3838.5800000000004  485.8 3834.8  C 485.8 3831.02  488.77000000000004 3828.05  492.55 3828.05  C 496.33 3828.05  499.3 3831.02  499.3 3834.8  C 499.3 3838.5800000000004  496.33 3841.55  492.55 3841.55  " fill-rule="nonzero" fill="#cccccc" stroke="none" />
    <path d="M 448 3911  L 448 3861.5  L 466.25 3839  L 491.8 3857  L 506.4 3852.5  L 521 3857  L 521 3911  L 448 3911  " fill-rule="nonzero" fill="#169bd5" stroke="none" />
  </g>
</svg>