<?xml version="1.0" encoding="utf-8"?>
<svg version="1.1" xmlns:xlink="http://www.w3.org/1999/xlink" width="71px" height="77px" xmlns="http://www.w3.org/2000/svg">
  <g transform="matrix(1 0 0 1 -218 -3842 )">
    <path d="M 218 3842  L 289 3842  L 289 3919  L 218 3919  L 218 3842  " fill-rule="nonzero" fill="#cccccc" stroke="none" />
    <path d="M 223 3847  L 284 3847  L 284 3914  L 223 3914  L 223 3847  " fill-rule="nonzero" fill="#ffffff" stroke="none" />
    <path d="M 260.245 3864.2000000000003  C 257.26300000000003 3864.2000000000003  254.92000000000002 3861.857  254.92000000000002 3858.875  C 254.92000000000002 3855.893  257.26300000000003 3853.55  260.245 3853.55  C 263.227 3853.55  265.57 3855.893  265.57 3858.875  C 265.57 3861.857  263.227 3864.2000000000003  260.245 3864.2000000000003  " fill-rule="nonzero" fill="#cccccc" stroke="none" />
    <path d="M 225 3912  L 225 3877.35  L 239.25 3861.6  L 259.2 3874.2  L 270.6 3871.05  L 282 3874.2  L 282 3912  L 225 3912  " fill-rule="nonzero" fill="#169bd5" stroke="none" />
  </g>
</svg>