<?xml version="1.0" encoding="utf-8"?>
<svg version="1.1" xmlns:xlink="http://www.w3.org/1999/xlink" width="1190px" height="510px" xmlns="http://www.w3.org/2000/svg">
  <defs>
    <filter x="15px" y="15px" width="1190px" height="510px" filterUnits="userSpaceOnUse" id="filter278">
      <feOffset dx="0" dy="0" in="SourceAlpha" result="shadowOffsetInner" />
      <feGaussianBlur stdDeviation="2.5" in="shadowOffsetInner" result="shadowGaussian" />
      <feComposite in2="shadowGaussian" operator="atop" in="SourceAlpha" result="shadowComposite" />
      <feColorMatrix type="matrix" values="0 0 0 0 0.8941176470588235  0 0 0 0 0.8941176470588235  0 0 0 0 0.8941176470588235  0 0 0 1 0  " in="shadowComposite" />
    </filter>
    <g id="widget279">
      <path d="M 21 32  A 11 11 0 0 1 32 21 L 1188 21  A 11 11 0 0 1 1199 32 L 1199 508  A 11 11 0 0 1 1188 519 L 32 519  A 11 11 0 0 1 21 508 L 21 32  Z " fill-rule="nonzero" fill="#ffffff" stroke="none" />
      <path d="M 20.5 32  A 11.5 11.5 0 0 1 32 20.5 L 1188 20.5  A 11.5 11.5 0 0 1 1199.5 32 L 1199.5 508  A 11.5 11.5 0 0 1 1188 519.5 L 32 519.5  A 11.5 11.5 0 0 1 20.5 508 L 20.5 32  Z " stroke-width="1" stroke="#f2f2f2" fill="none" stroke-opacity="0.9882352941176471" />
    </g>
  </defs>
  <g transform="matrix(1 0 0 1 -15 -15 )">
    <use xlink:href="#widget279" filter="url(#filter278)" />
    <use xlink:href="#widget279" />
  </g>
</svg>