<?xml version="1.0" encoding="utf-8"?>
<svg version="1.1" xmlns:xlink="http://www.w3.org/1999/xlink" width="140px" height="40px" xmlns="http://www.w3.org/2000/svg">
  <g transform="matrix(1 0 0 1 -1507 -220 )">
    <path d="M 1508 225  A 4 4 0 0 1 1512 221 L 1642 221  A 4 4 0 0 1 1646 225 L 1646 255  A 4 4 0 0 1 1642 259 L 1512 259  A 4 4 0 0 1 1508 255 L 1508 225  Z " fill-rule="nonzero" fill="#ffffff" stroke="none" />
    <path d="M 1507.5 225  A 4.5 4.5 0 0 1 1512 220.5 L 1642 220.5  A 4.5 4.5 0 0 1 1646.5 225 L 1646.5 255  A 4.5 4.5 0 0 1 1642 259.5 L 1512 259.5  A 4.5 4.5 0 0 1 1507.5 255 L 1507.5 225  Z " stroke-width="1" stroke-dasharray="9,4" stroke="#797979" fill="none" stroke-dashoffset="0.5" />
  </g>
</svg>