<?xml version="1.0" encoding="utf-8"?>
<svg version="1.1" xmlns:xlink="http://www.w3.org/1999/xlink" width="335px" height="144px" xmlns="http://www.w3.org/2000/svg">
  <g transform="matrix(1 0 0 1 -20 -60 )">
    <path d="M 21 72  A 11 11 0 0 1 32 61 L 343 61  A 11 11 0 0 1 354 72 L 354 192  A 11 11 0 0 1 343 203 L 32 203  A 11 11 0 0 1 21 192 L 21 72  Z " fill-rule="nonzero" fill="#ffffff" stroke="none" />
    <path d="M 20.5 72  A 11.5 11.5 0 0 1 32 60.5 L 343 60.5  A 11.5 11.5 0 0 1 354.5 72 L 354.5 192  A 11.5 11.5 0 0 1 343 203.5 L 32 203.5  A 11.5 11.5 0 0 1 20.5 192 L 20.5 72  Z " stroke-width="1" stroke="#f2f2f2" fill="none" stroke-opacity="0.9882352941176471" />
  </g>
</svg>