<?xml version="1.0" encoding="utf-8"?>
<svg version="1.1" xmlns:xlink="http://www.w3.org/1999/xlink" width="334px" height="44px" xmlns="http://www.w3.org/2000/svg">
  <g transform="matrix(1 0 0 1 -20 -272 )">
    <path d="M 21 284  A 11 11 0 0 1 32 273 L 342 273  A 11 11 0 0 1 353 284 L 353 304  A 11 11 0 0 1 342 315 L 32 315  A 11 11 0 0 1 21 304 L 21 284  Z " fill-rule="nonzero" fill="#f68c95" stroke="none" fill-opacity="0" />
    <path d="M 20.5 284  A 11.5 11.5 0 0 1 32 272.5 L 342 272.5  A 11.5 11.5 0 0 1 353.5 284 L 353.5 304  A 11.5 11.5 0 0 1 342 315.5 L 32 315.5  A 11.5 11.5 0 0 1 20.5 304 L 20.5 284  Z " stroke-width="1" stroke="#f2f2f2" fill="none" stroke-opacity="0.9882352941176471" />
  </g>
</svg>