<?xml version="1.0" encoding="utf-8"?>
<svg version="1.1" xmlns:xlink="http://www.w3.org/1999/xlink" width="27px" height="27px" xmlns="http://www.w3.org/2000/svg">
  <g transform="matrix(1 0 0 1 -433 -481 )">
    <path d="M 446.5 481  C 454.06 481  460 486.94  460 494.5  C 460 502.06  454.06 508  446.5 508  C 438.94 508  433 502.06  433 494.5  C 433 486.94  438.94 481  446.5 481  Z " fill-rule="nonzero" fill="#ffffff" stroke="none" />
    <path d="M 446.5 481.5  C 453.78 481.5  459.5 487.22  459.5 494.5  C 459.5 501.78  453.78 507.5  446.5 507.5  C 439.22 507.5  433.5 501.78  433.5 494.5  C 433.5 487.22  439.22 481.5  446.5 481.5  Z " stroke-width="1" stroke="#797979" fill="none" />
  </g>
</svg>