<?xml version="1.0" encoding="utf-8"?>
<svg version="1.1" xmlns:xlink="http://www.w3.org/1999/xlink" width="16px" height="17px" xmlns="http://www.w3.org/2000/svg">
  <g transform="matrix(1 0 0 1 -496 -624 )">
    <path d="M 504 624  C 508.48 624  512 627.74  512 632.5  C 512 637.26  508.48 641  504 641  C 499.52 641  496 637.26  496 632.5  C 496 627.74  499.52 624  504 624  Z " fill-rule="nonzero" fill="#aaaaaa" stroke="none" />
    <path d="M 504 624.5  C 508.2 624.5  511.5 628.02  511.5 632.5  C 511.5 636.98  508.2 640.5  504 640.5  C 499.8 640.5  496.5 636.98  496.5 632.5  C 496.5 628.02  499.8 624.5  504 624.5  Z " stroke-width="1" stroke="#797979" fill="none" />
  </g>
</svg>