<?xml version="1.0" encoding="utf-8"?>
<svg version="1.1" xmlns:xlink="http://www.w3.org/1999/xlink" width="16px" height="17px" xmlns="http://www.w3.org/2000/svg">
  <g transform="matrix(1 0 0 1 -517 -624 )">
    <path d="M 525 624  C 529.48 624  533 627.74  533 632.5  C 533 637.26  529.48 641  525 641  C 520.52 641  517 637.26  517 632.5  C 517 627.74  520.52 624  525 624  Z " fill-rule="nonzero" fill="#ffffff" stroke="none" />
    <path d="M 525 624.5  C 529.2 624.5  532.5 628.02  532.5 632.5  C 532.5 636.98  529.2 640.5  525 640.5  C 520.8 640.5  517.5 636.98  517.5 632.5  C 517.5 628.02  520.8 624.5  525 624.5  Z " stroke-width="1" stroke="#797979" fill="none" />
  </g>
</svg>