<?xml version="1.0" encoding="utf-8"?>
<svg version="1.1" xmlns:xlink="http://www.w3.org/1999/xlink" width="22px" height="22px" xmlns="http://www.w3.org/2000/svg">
  <g transform="matrix(1 0 0 1 -652 -473 )">
    <path d="M 663 473  C 669.16 473  674 477.84  674 484  C 674 490.16  669.16 495  663 495  C 656.84 495  652 490.16  652 484  C 652 477.84  656.84 473  663 473  Z " fill-rule="nonzero" fill="#ffffff" stroke="none" />
    <path d="M 663 473.5  C 668.88 473.5  673.5 478.12  673.5 484  C 673.5 489.88  668.88 494.5  663 494.5  C 657.12 494.5  652.5 489.88  652.5 484  C 652.5 478.12  657.12 473.5  663 473.5  Z " stroke-width="1" stroke="#797979" fill="none" />
  </g>
</svg>