<?xml version="1.0" encoding="utf-8"?>
<svg version="1.1" xmlns:xlink="http://www.w3.org/1999/xlink" width="67px" height="68px" xmlns="http://www.w3.org/2000/svg">
  <g transform="matrix(1 0 0 1 -971 -370 )">
    <path d="M 1004.5 370  C 1023.26 370  1038 384.96  1038 404  C 1038 423.04  1023.26 438  1004.5 438  C 985.74 438  971 423.04  971 404  C 971 384.96  985.74 370  1004.5 370  Z " fill-rule="nonzero" fill="#ffffff" stroke="none" />
    <path d="M 1004.5 370.5  C 1022.98 370.5  1037.5 385.24  1037.5 404  C 1037.5 422.76  1022.98 437.5  1004.5 437.5  C 986.02 437.5  971.5 422.76  971.5 404  C 971.5 385.24  986.02 370.5  1004.5 370.5  Z " stroke-width="1" stroke="#797979" fill="none" />
  </g>
</svg>