<?xml version="1.0" encoding="utf-8"?>
<svg version="1.1" xmlns:xlink="http://www.w3.org/1999/xlink" width="346px" height="96px" xmlns="http://www.w3.org/2000/svg">
  <g transform="matrix(1 0 0 1 -90 -1114 )">
    <path d="M 90 1114  L 436 1114  L 436 1210  L 90 1210  L 90 1114  " fill-rule="nonzero" fill="#cccccc" stroke="none" />
    <path d="M 97 1121  L 429 1121  L 429 1203  L 97 1203  L 97 1121  " fill-rule="nonzero" fill="#ffffff" stroke="none" />
    <path d="M 277.12 1142.8000000000002  C 273.088 1142.8000000000002  269.92 1139.632  269.92 1135.6000000000001  C 269.92 1131.5680000000002  273.088 1128.4  277.12 1128.4  C 281.152 1128.4  284.32 1131.5680000000002  284.32 1135.6000000000001  C 284.32 1139.632  281.152 1142.8000000000002  277.12 1142.8000000000002  " fill-rule="nonzero" fill="#cccccc" stroke="none" />
    <path d="M 100 1201  L 100 1158.65  L 181.75 1139.4  L 296.2 1188.1815028901733  L 361.6 1150.95  L 427 1188.1815028901733  L 427 1201  L 100 1201  " fill-rule="nonzero" fill="#169bd5" stroke="none" />
  </g>
</svg>