<?xml version="1.0" encoding="utf-8"?>
<svg version="1.1" xmlns:xlink="http://www.w3.org/1999/xlink" width="300px" height="170px" xmlns="http://www.w3.org/2000/svg">
  <g transform="matrix(1 0 0 1 -1527 -147 )">
    <path d="M 1527 147  L 1827 147  L 1827 317  L 1527 317  L 1527 147  " fill-rule="nonzero" fill="#cccccc" stroke="none" />
    <path d="M 1539 159  L 1815 159  L 1815 305  L 1539 305  L 1539 159  " fill-rule="nonzero" fill="#ffffff" stroke="none" />
    <path d="M 1695.75 198  C 1688.61 198  1683 192.39  1683 185.25  C 1683 178.11  1688.61 172.5  1695.75 172.5  C 1702.89 172.5  1708.5 178.11  1708.5 185.25  C 1708.5 192.39  1702.89 198  1695.75 198  " fill-rule="nonzero" fill="#cccccc" stroke="none" />
    <path d="M 1544 301  L 1544 225.64999999999998  L 1610.75 191.39999999999998  L 1704.2 254.42000000000002  L 1757.6 211.95  L 1811 254.42000000000002  L 1811 301  L 1544 301  " fill-rule="nonzero" fill="#169bd5" stroke="none" />
  </g>
</svg>