<?xml version="1.0" encoding="utf-8"?>
<svg version="1.1" xmlns:xlink="http://www.w3.org/1999/xlink" width="36px" height="36px" xmlns="http://www.w3.org/2000/svg">
  <g transform="matrix(1 0 0 1 -64 -83 )">
    <path d="M 82 83  C 92.08 83  100 90.92  100 101  C 100 111.08  92.08 119  82 119  C 71.92 119  64 111.08  64 101  C 64 90.92  71.92 83  82 83  Z " fill-rule="nonzero" fill="#ffffff" stroke="none" />
    <path d="M 82 83.5  C 91.8 83.5  99.5 91.2  99.5 101  C 99.5 110.8  91.8 118.5  82 118.5  C 72.2 118.5  64.5 110.8  64.5 101  C 64.5 91.2  72.2 83.5  82 83.5  Z " stroke-width="1" stroke="#797979" fill="none" />
  </g>
</svg>