<?xml version="1.0" encoding="utf-8"?>
<svg version="1.1" xmlns:xlink="http://www.w3.org/1999/xlink" width="126px" height="88px" xmlns="http://www.w3.org/2000/svg">
  <g transform="matrix(1 0 0 1 -564 -406 )">
    <path d="M 564 406  L 690 406  L 690 494  L 564 494  L 564 406  " fill-rule="nonzero" fill="#cccccc" stroke="none" />
    <path d="M 570 412  L 684 412  L 684 488  L 570 488  L 570 412  " fill-rule="nonzero" fill="#ffffff" stroke="none" />
    <path d="M 636.12 432.4  C 632.424 432.4  629.52 429.496  629.52 425.79999999999995  C 629.52 422.104  632.424 419.2  636.12 419.2  C 639.816 419.2  642.72 422.104  642.72 425.79999999999995  C 642.72 429.496  639.816 432.4  636.12 432.4  " fill-rule="nonzero" fill="#cccccc" stroke="none" />
    <path d="M 572 486  L 572 446.4  L 599.5 428.4  L 638 455.8285714285714  L 660 439.2  L 682 455.8285714285714  L 682 486  L 572 486  " fill-rule="nonzero" fill="#169bd5" stroke="none" />
  </g>
</svg>