<?xml version="1.0" encoding="utf-8"?>
<svg version="1.1" xmlns:xlink="http://www.w3.org/1999/xlink" width="13px" height="13px" viewBox="256 283  13 13" xmlns="http://www.w3.org/2000/svg">
  <path d="M 262.5 283  C 266.14 283  269 285.86  269 289.5  C 269 293.14  266.14 296  262.5 296  C 258.86 296  256 293.14  256 289.5  C 256 285.86  258.86 283  262.5 283  Z " fill-rule="nonzero" fill="#ffffff" stroke="none" />
  <path d="M 262.5 283.5  C 265.86 283.5  268.5 286.14  268.5 289.5  C 268.5 292.86  265.86 295.5  262.5 295.5  C 259.14 295.5  256.5 292.86  256.5 289.5  C 256.5 286.14  259.14 283.5  262.5 283.5  Z " stroke-width="1" stroke="#797979" fill="none" />
  <path d="M 262.5 292.75  C 260.68 292.75  259.25 291.32  259.25 289.5  C 259.25 287.68  260.68 286.25  262.5 286.25  C 264.32 286.25  265.75 287.68  265.75 289.5  C 265.75 291.32  264.32 292.75  262.5 292.75  " fill-rule="nonzero" fill="#797979" stroke="none" />
</svg>