<?xml version="1.0" encoding="utf-8"?>
<svg version="1.1" xmlns:xlink="http://www.w3.org/1999/xlink" width="13px" height="13px" viewBox="104 283  13 13" xmlns="http://www.w3.org/2000/svg">
  <path d="M 110.5 283  C 114.14 283  117 285.86  117 289.5  C 117 293.14  114.14 296  110.5 296  C 106.86 296  104 293.14  104 289.5  C 104 285.86  106.86 283  110.5 283  Z " fill-rule="nonzero" fill="#f0f0f0" stroke="none" />
  <path d="M 110.5 283.5  C 113.86 283.5  116.5 286.14  116.5 289.5  C 116.5 292.86  113.86 295.5  110.5 295.5  C 107.14 295.5  104.5 292.86  104.5 289.5  C 104.5 286.14  107.14 283.5  110.5 283.5  Z " stroke-width="1" stroke="#797979" fill="none" />
  <path d="M 110.5 292.75  C 108.68 292.75  107.25 291.32  107.25 289.5  C 107.25 287.68  108.68 286.25  110.5 286.25  C 112.32 286.25  113.75 287.68  113.75 289.5  C 113.75 291.32  112.32 292.75  110.5 292.75  " fill-rule="nonzero" fill="#797979" stroke="none" />
</svg>