<?xml version="1.0" encoding="utf-8"?>
<svg version="1.1" xmlns:xlink="http://www.w3.org/1999/xlink" width="13px" height="13px" viewBox="856 529  13 13" xmlns="http://www.w3.org/2000/svg">
  <path d="M 862.5 529  C 866.14 529  869 531.86  869 535.5  C 869 539.14  866.14 542  862.5 542  C 858.86 542  856 539.14  856 535.5  C 856 531.86  858.86 529  862.5 529  Z " fill-rule="nonzero" fill="#f0f0f0" stroke="none" />
  <path d="M 862.5 529.5  C 865.86 529.5  868.5 532.14  868.5 535.5  C 868.5 538.86  865.86 541.5  862.5 541.5  C 859.14 541.5  856.5 538.86  856.5 535.5  C 856.5 532.14  859.14 529.5  862.5 529.5  Z " stroke-width="1" stroke="#797979" fill="none" />
  <path d="M 862.5 538.75  C 860.68 538.75  859.25 537.32  859.25 535.5  C 859.25 533.68  860.68 532.25  862.5 532.25  C 864.32 532.25  865.75 533.68  865.75 535.5  C 865.75 537.32  864.32 538.75  862.5 538.75  " fill-rule="nonzero" fill="#797979" stroke="none" />
</svg>