<?xml version="1.0" encoding="utf-8"?>
<svg version="1.1" xmlns:xlink="http://www.w3.org/1999/xlink" width="13px" height="13px" viewBox="856 598  13 13" xmlns="http://www.w3.org/2000/svg">
  <path d="M 862.5 598  C 866.14 598  869 600.86  869 604.5  C 869 608.14  866.14 611  862.5 611  C 858.86 611  856 608.14  856 604.5  C 856 600.86  858.86 598  862.5 598  Z " fill-rule="nonzero" fill="#ffffff" stroke="none" />
  <path d="M 862.5 598.5  C 865.86 598.5  868.5 601.14  868.5 604.5  C 868.5 607.86  865.86 610.5  862.5 610.5  C 859.14 610.5  856.5 607.86  856.5 604.5  C 856.5 601.14  859.14 598.5  862.5 598.5  Z " stroke-width="1" stroke="#797979" fill="none" />
  <path d="M 862.5 607.75  C 860.68 607.75  859.25 606.32  859.25 604.5  C 859.25 602.68  860.68 601.25  862.5 601.25  C 864.32 601.25  865.75 602.68  865.75 604.5  C 865.75 606.32  864.32 607.75  862.5 607.75  " fill-rule="nonzero" fill="#797979" stroke="none" />
</svg>