<?xml version="1.0" encoding="utf-8"?>
<svg version="1.1" xmlns:xlink="http://www.w3.org/1999/xlink" width="13px" height="13px" viewBox="856 563  13 13" xmlns="http://www.w3.org/2000/svg">
  <path d="M 862.5 563  C 866.14 563  869 565.86  869 569.5  C 869 573.14  866.14 576  862.5 576  C 858.86 576  856 573.14  856 569.5  C 856 565.86  858.86 563  862.5 563  Z " fill-rule="nonzero" fill="#f0f0f0" stroke="none" />
  <path d="M 862.5 563.5  C 865.86 563.5  868.5 566.14  868.5 569.5  C 868.5 572.86  865.86 575.5  862.5 575.5  C 859.14 575.5  856.5 572.86  856.5 569.5  C 856.5 566.14  859.14 563.5  862.5 563.5  Z " stroke-width="1" stroke="#797979" fill="none" />
  <path d="M 862.5 572.75  C 860.68 572.75  859.25 571.32  859.25 569.5  C 859.25 567.68  860.68 566.25  862.5 566.25  C 864.32 566.25  865.75 567.68  865.75 569.5  C 865.75 571.32  864.32 572.75  862.5 572.75  " fill-rule="nonzero" fill="#797979" stroke="none" />
</svg>