<?xml version="1.0" encoding="utf-8"?>
<svg version="1.1" xmlns:xlink="http://www.w3.org/1999/xlink" width="335px" height="111px" xmlns="http://www.w3.org/2000/svg">
  <g transform="matrix(1 0 0 1 -17 -144 )">
    <path d="M 18 156  A 11 11 0 0 1 29 145 L 340 145  A 11 11 0 0 1 351 156 L 351 243  A 11 11 0 0 1 340 254 L 29 254  A 11 11 0 0 1 18 243 L 18 156  Z " fill-rule="nonzero" fill="#ffffff" stroke="none" />
    <path d="M 17.5 156  A 11.5 11.5 0 0 1 29 144.5 L 340 144.5  A 11.5 11.5 0 0 1 351.5 156 L 351.5 243  A 11.5 11.5 0 0 1 340 254.5 L 29 254.5  A 11.5 11.5 0 0 1 17.5 243 L 17.5 156  Z " stroke-width="1" stroke="#f2f2f2" fill="none" stroke-opacity="0.9882352941176471" />
  </g>
</svg>