<?xml version="1.0" encoding="utf-8"?>
<svg version="1.1" xmlns:xlink="http://www.w3.org/1999/xlink" width="80px" height="32px" xmlns="http://www.w3.org/2000/svg">
  <g transform="matrix(1 0 0 1 -275 -692 )">
    <path d="M 276 708  A 15 15 0 0 1 291 693 L 339 693  A 15 15 0 0 1 354 708 A 15 15 0 0 1 339 723 L 291 723  A 15 15 0 0 1 276 708 Z " fill-rule="nonzero" fill="#f68c95" stroke="none" fill-opacity="0" />
    <path d="M 275.5 708  A 15.5 15.5 0 0 1 291 692.5 L 339 692.5  A 15.5 15.5 0 0 1 354.5 708 A 15.5 15.5 0 0 1 339 723.5 L 291 723.5  A 15.5 15.5 0 0 1 275.5 708 Z " stroke-width="1" stroke="#aaaaaa" fill="none" stroke-opacity="0.9882352941176471" />
  </g>
</svg>