<?xml version="1.0" encoding="utf-8"?>
<svg version="1.1" xmlns:xlink="http://www.w3.org/1999/xlink" width="28px" height="28px" xmlns="http://www.w3.org/2000/svg">
  <g transform="matrix(1 0 0 1 -29 -196 )">
    <path d="M 43 196  C 50.84 196  57 202.16  57 210  C 57 217.84  50.84 224  43 224  C 35.16 224  29 217.84  29 210  C 29 202.16  35.16 196  43 196  Z " fill-rule="nonzero" fill="#ffffff" stroke="none" />
    <path d="M 43 196.5  C 50.56 196.5  56.5 202.44  56.5 210  C 56.5 217.56  50.56 223.5  43 223.5  C 35.44 223.5  29.5 217.56  29.5 210  C 29.5 202.44  35.44 196.5  43 196.5  Z " stroke-width="1" stroke="#797979" fill="none" />
  </g>
</svg>