<?xml version="1.0" encoding="utf-8"?>
<svg version="1.1" xmlns:xlink="http://www.w3.org/1999/xlink" width="140px" height="153px" xmlns="http://www.w3.org/2000/svg">
  <g transform="matrix(1 0 0 1 -29 -238 )">
    <path d="M 29 238  L 169 238  L 169 391  L 29 391  L 29 238  " fill-rule="nonzero" fill="#cccccc" stroke="none" />
    <path d="M 39 248  L 159 248  L 159 381  L 39 381  L 39 248  " fill-rule="nonzero" fill="#ffffff" stroke="none" />
    <path d="M 112.3 281.95  C 106.42 281.95  101.8 277.33  101.8 271.45  C 101.8 265.57  106.42 260.95  112.3 260.95  C 118.17999999999999 260.95  122.8 265.57  122.8 271.45  C 122.8 277.33  118.17999999999999 281.95  112.3 281.95  " fill-rule="nonzero" fill="#cccccc" stroke="none" />
    <path d="M 43 378  L 43 308.7  L 71.25 277.2  L 110.8 302.4  L 133.4 296.1  L 156 302.4  L 156 378  L 43 378  " fill-rule="nonzero" fill="#169bd5" stroke="none" />
  </g>
</svg>