<?xml version="1.0" encoding="utf-8"?>
<svg version="1.1" xmlns:xlink="http://www.w3.org/1999/xlink" width="15px" height="15px" xmlns="http://www.w3.org/2000/svg">
  <g transform="matrix(1 0 0 1 -153 -458 )">
    <path d="M 160.5 458  C 164.7 458  168 461.3  168 465.5  C 168 469.7  164.7 473  160.5 473  C 156.3 473  153 469.7  153 465.5  C 153 461.3  156.3 458  160.5 458  Z " fill-rule="nonzero" fill="#d7d7d7" stroke="none" />
    <path d="M 160.5 458.5  C 164.42 458.5  167.5 461.58  167.5 465.5  C 167.5 469.42  164.42 472.5  160.5 472.5  C 156.58 472.5  153.5 469.42  153.5 465.5  C 153.5 461.58  156.58 458.5  160.5 458.5  Z " stroke-width="1" stroke="#797979" fill="none" />
  </g>
</svg>