<?xml version="1.0" encoding="utf-8"?>
<svg version="1.1" xmlns:xlink="http://www.w3.org/1999/xlink" width="15px" height="15px" xmlns="http://www.w3.org/2000/svg">
  <g transform="matrix(1 0 0 1 -176 -458 )">
    <path d="M 183.5 458  C 187.7 458  191 461.3  191 465.5  C 191 469.7  187.7 473  183.5 473  C 179.3 473  176 469.7  176 465.5  C 176 461.3  179.3 458  183.5 458  Z " fill-rule="nonzero" fill="#ffffff" stroke="none" />
    <path d="M 183.5 458.5  C 187.42 458.5  190.5 461.58  190.5 465.5  C 190.5 469.42  187.42 472.5  183.5 472.5  C 179.58 472.5  176.5 469.42  176.5 465.5  C 176.5 461.58  179.58 458.5  183.5 458.5  Z " stroke-width="1" stroke="#797979" fill="none" />
  </g>
</svg>