<?xml version="1.0" encoding="utf-8"?>
<svg version="1.1" xmlns:xlink="http://www.w3.org/1999/xlink" width="300px" height="75px" xmlns="http://www.w3.org/2000/svg">
  <g transform="matrix(1 0 0 1 -91 -130 )">
    <path d="M 91 130  L 391 130  L 391 205  L 91 205  L 91 130  " fill-rule="nonzero" fill="#cccccc" stroke="none" />
    <path d="M 96 135  L 386 135  L 386 200  L 96 200  L 96 135  " fill-rule="nonzero" fill="#ffffff" stroke="none" />
    <path d="M 252.625 152.5  C 249.475 152.5  247 150.025  247 146.875  C 247 143.725  249.475 141.25  252.625 141.25  C 255.775 141.25  258.25 143.725  258.25 146.875  C 258.25 150.025  255.775 152.5  252.625 152.5  " fill-rule="nonzero" fill="#cccccc" stroke="none" />
    <path d="M 98 198  L 98 164.45  L 169.5 149.2  L 269.6 188.85  L 326.8 158.35  L 384 188.85  L 384 198  L 98 198  " fill-rule="nonzero" fill="#169bd5" stroke="none" />
  </g>
</svg>