<?xml version="1.0" encoding="utf-8"?>
<svg version="1.1" xmlns:xlink="http://www.w3.org/1999/xlink" width="39px" height="32px" xmlns="http://www.w3.org/2000/svg">
  <g transform="matrix(1 0 0 1 -164 -553 )">
    <path d="M 164 553  L 203 553  L 203 585  L 164 585  L 164 553  " fill-rule="nonzero" fill="#cccccc" stroke="none" />
    <path d="M 166 555  L 201 555  L 201 583  L 166 583  L 166 555  " fill-rule="nonzero" fill="#ffffff" stroke="none" />
    <path d="M 186.68 562.5999999999999  C 185.336 562.5999999999999  184.28 561.5439999999999  184.28 560.1999999999999  C 184.28 558.856  185.336 557.8  186.68 557.8  C 188.024 557.8  189.08 558.856  189.08 560.1999999999999  C 189.08 561.5439999999999  188.024 562.5999999999999  186.68 562.5999999999999  " fill-rule="nonzero" fill="#cccccc" stroke="none" />
    <path d="M 167 582  L 167 567.7  L 175.25 561.2  L 186.8 569.2  L 193.4 565.1  L 200 569.2  L 200 582  L 167 582  " fill-rule="nonzero" fill="#169bd5" stroke="none" />
  </g>
</svg>