<?xml version="1.0" encoding="utf-8"?>
<svg version="1.1" xmlns:xlink="http://www.w3.org/1999/xlink" width="74px" height="84px" xmlns="http://www.w3.org/2000/svg">
  <g transform="matrix(1 0 0 1 -31 -415 )">
    <path d="M 31 415  L 105 415  L 105 499  L 31 499  L 31 415  " fill-rule="nonzero" fill="#cccccc" stroke="none" />
    <path d="M 36 420  L 100 420  L 100 494  L 36 494  L 36 420  " fill-rule="nonzero" fill="#ffffff" stroke="none" />
    <path d="M 75.03 438.70000000000005  C 71.922 438.70000000000005  69.48 436.25800000000004  69.48 433.15000000000003  C 69.48 430.04200000000003  71.922 427.6  75.03 427.6  C 78.138 427.6  80.58 430.04200000000003  80.58 433.15000000000003  C 80.58 436.25800000000004  78.138 438.70000000000005  75.03 438.70000000000005  " fill-rule="nonzero" fill="#cccccc" stroke="none" />
    <path d="M 38 492  L 38 453.5  L 53 436  L 74 450  L 86 446.5  L 98 450  L 98 492  L 38 492  " fill-rule="nonzero" fill="#169bd5" stroke="none" />
  </g>
</svg>