<?xml version="1.0" encoding="utf-8"?>
<svg version="1.1" xmlns:xlink="http://www.w3.org/1999/xlink" width="19px" height="16px" xmlns="http://www.w3.org/2000/svg">
  <g transform="matrix(1 0 0 1 -234 -819 )">
    <path d="M 9.952380952380954 15.238095238095237  C 8.4661774770899 15.239979532352281  7.002510470714834 14.932166292397959  5.691857142857144 14.34209523809524  L 0.9047619047619047 15.238095238095237  L 1.9687619047619054 11.206857142857142  C 1.2680525277774244 10.103149077292773  0.9025243053316658 8.870587387713769  0.9047619047619047 7.619047619047619  C 0.9047619047619047 3.4110476190476193  4.955380952380953 0  9.952380952380953 0  C 14.949380952380952 0  19 3.4110476190476193  19 7.619047619047619  C 19 11.827047619047619  14.949380952380952 15.238095238095237  9.952380952380954 15.238095238095237  Z M 3.2879047619047617 13.231238095238094  L 5.954238095238096 12.732190476190478  L 6.545047619047621 12.998857142857148  C 7.5932596573978515 13.470582227454619  8.763879071760332 13.716374022202388  9.952380952380953 13.714285714285714  C 13.949870570203835 13.714285714285714  17.19047619047619 10.985354665635311  17.19047619047619 7.619047619047619  C 17.19047619047619 4.252740572459926  13.949870570203835 1.5238095238095237  9.952380952380953 1.5238095238095237  C 5.9548913345580665 1.5238095238095237  2.714285714285714 4.252740572459926  2.714285714285714 7.619047619047619  C 2.714285714285714 8.635428571428571  3.0083333333333337 9.613714285714286  3.5647619047619044 10.488380952380952  L 3.880523809523809 10.985904761904763  L 3.2879047619047617 13.231238095238094  Z " fill-rule="nonzero" fill="#ec808d" stroke="none" fill-opacity="0.9882352941176471" transform="matrix(1 0 0 1 234 819 )" />
  </g>
</svg>