<?xml version="1.0" encoding="utf-8"?>
<svg version="1.1" xmlns:xlink="http://www.w3.org/1999/xlink" width="45px" height="45px" xmlns="http://www.w3.org/2000/svg">
  <g transform="matrix(1 0 0 1 -458 -118 )">
    <path d="M 480.5 118  C 493.1 118  503 127.9  503 140.5  C 503 153.1  493.1 163  480.5 163  C 467.9 163  458 153.1  458 140.5  C 458 127.9  467.9 118  480.5 118  Z " fill-rule="nonzero" fill="#ffffff" stroke="none" />
    <path d="M 480.5 118.5  C 492.82 118.5  502.5 128.18  502.5 140.5  C 502.5 152.82  492.82 162.5  480.5 162.5  C 468.18 162.5  458.5 152.82  458.5 140.5  C 458.5 128.18  468.18 118.5  480.5 118.5  Z " stroke-width="1" stroke="#797979" fill="none" />
  </g>
</svg>