<?xml version="1.0" encoding="utf-8"?>
<svg version="1.1" xmlns:xlink="http://www.w3.org/1999/xlink" width="329px" height="129px" xmlns="http://www.w3.org/2000/svg">
  <g transform="matrix(1 0 0 1 -16 -261 )">
    <path d="M 16 261  L 345 261  L 345 390  L 16 390  L 16 261  " fill-rule="nonzero" fill="#cccccc" stroke="none" />
    <path d="M 25 270  L 336 270  L 336 381  L 25 381  L 25 270  " fill-rule="nonzero" fill="#ffffff" stroke="none" />
    <path d="M 196.755 299.70000000000005  C 191.33700000000002 299.70000000000005  187.08 295.44300000000004  187.08 290.02500000000003  C 187.08 284.607  191.33700000000002 280.35  196.755 280.35  C 202.173 280.35  206.43 284.607  206.43 290.02500000000003  C 206.43 295.44300000000004  202.173 299.70000000000005  196.755 299.70000000000005  " fill-rule="nonzero" fill="#cccccc" stroke="none" />
    <path d="M 28 378  L 28 320.25  L 104.25 294  L 211 353.29787234042556  L 272 309.75  L 333 353.29787234042556  L 333 378  L 28 378  " fill-rule="nonzero" fill="#169bd5" stroke="none" />
  </g>
</svg>