<?xml version="1.0" encoding="utf-8"?>
<svg version="1.1" xmlns:xlink="http://www.w3.org/1999/xlink" width="31px" height="31px" xmlns="http://www.w3.org/2000/svg">
  <g transform="matrix(1 0 0 1 -16 -159 )">
    <path d="M 31.5 159  C 40.18 159  47 165.82  47 174.5  C 47 183.18  40.18 190  31.5 190  C 22.82 190  16 183.18  16 174.5  C 16 165.82  22.82 159  31.5 159  Z " fill-rule="nonzero" fill="#ffffff" stroke="none" />
    <path d="M 31.5 159.5  C 39.900000000000006 159.5  46.5 166.1  46.5 174.5  C 46.5 182.9  39.900000000000006 189.5  31.5 189.5  C 23.1 189.5  16.5 182.9  16.5 174.5  C 16.5 166.1  23.1 159.5  31.5 159.5  Z " stroke-width="1" stroke="#797979" fill="none" />
  </g>
</svg>