<?xml version="1.0" encoding="utf-8"?>
<svg version="1.1" xmlns:xlink="http://www.w3.org/1999/xlink" width="349px" height="670px" xmlns="http://www.w3.org/2000/svg">
  <g transform="matrix(1 0 0 1 -13 -80 )">
    <path d="M 13 80  L 362 80  L 362 750  L 13 750  L 13 80  " fill-rule="nonzero" fill="#cccccc" stroke="none" />
    <path d="M 37 104  L 338 104  L 338 726  L 37 726  L 37 104  " fill-rule="nonzero" fill="#ffffff" stroke="none" />
    <path d="M 220.65500000000003 232.85  C 205.997 232.85  194.48000000000002 221.333  194.48000000000002 206.675  C 194.48000000000002 192.017  205.997 180.5  220.65500000000003 180.5  C 235.31300000000002 180.5  246.83 192.017  246.83 206.675  C 246.83 221.333  235.31300000000002 232.85  220.65500000000003 232.85  " fill-rule="nonzero" fill="#cccccc" stroke="none" />
    <path d="M 46 718  L 46 385.25  L 117 234  L 216.4 355  L 273.20000000000005 324.75  L 330 355  L 330 718  L 46 718  " fill-rule="nonzero" fill="#169bd5" stroke="none" />
  </g>
</svg>