<?xml version="1.0" encoding="utf-8"?>
<svg version="1.1" xmlns:xlink="http://www.w3.org/1999/xlink" width="19px" height="18px" xmlns="http://www.w3.org/2000/svg">
  <g transform="matrix(1 0 0 1 -20 -1953 )">
    <path d="M 17.1 9.473684210526315  C 17.1 5.287947159177144  13.697364098714027 1.894736842105263  9.5 1.894736842105263  C 5.30263590128597 1.894736842105263  1.9000000000000001 5.287947159177144  1.9000000000000001 9.473684210526315  L 4.75 9.473684210526315  C 5.799341024678507 9.473684210526315  6.6499999999999995 10.321986789794286  6.6499999999999995 11.368421052631579  L 6.6499999999999995 16.105263157894736  C 6.6499999999999995 17.151697420732027  5.799341024678507 18  4.75 18  L 1.9000000000000001 18  C 0.8506589753214924 18  0 17.151697420732027  0 16.105263157894736  L 0 9.473684210526315  C 0 4.241368421052632  4.253150000000001 0  9.5 0  C 14.74685 0  19 4.241368421052632  19 9.473684210526315  L 19 16.105263157894736  C 19 17.151697420732027  18.149341024678506 18  17.1 18  L 14.25 18  C 13.200658975321492 18  12.35 17.151697420732027  12.35 16.105263157894736  L 12.35 11.368421052631579  C 12.35 10.321986789794286  13.200658975321492 9.473684210526315  14.25 9.473684210526315  L 17.1 9.473684210526315  Z M 4.75 11.368421052631579  L 1.9000000000000001 11.368421052631579  L 1.9000000000000001 16.105263157894736  L 4.75 16.105263157894736  L 4.75 11.368421052631579  Z M 17.1 11.368421052631579  L 14.25 11.368421052631579  L 14.25 16.105263157894736  L 17.1 16.105263157894736  L 17.1 11.368421052631579  Z " fill-rule="nonzero" fill="#333333" stroke="none" transform="matrix(1 0 0 1 20 1953 )" />
  </g>
</svg>