<?xml version="1.0" encoding="utf-8"?>
<svg version="1.1" xmlns:xlink="http://www.w3.org/1999/xlink" width="14px" height="16px" xmlns="http://www.w3.org/2000/svg">
  <g transform="matrix(1 0 0 1 -40 -138 )">
    <path d="M 2.1000000000000005 0.31999999999999995  C 2.246886741555425 0.11855532586684632  2.4774109862965146 0  2.7222222222222223 0  L 11.277777777777779 0  C 11.522589013703485 0  11.753113258444575 0.11855532586684632  11.900000000000002 0.31999999999999995  L 14 3.2  L 14 15.2  C 14 15.641827799864634  13.651777027646173 16  13.222222222222221 16  L 0.7777777777777777 16  C 0.3482229723538275 16  0 15.641827799864634  0 15.2  L 0 3.2  L 2.1000000000000005 0.31999999999999995  Z M 12.444444444444443 14.4  L 12.444444444444443 5  L 1.5555555555555554 5  L 1.5555555555555554 14.4  L 12.444444444444443 14.4  Z M 1.9444444444444446 3.2  L 12.055555555555557 3.2  L 10.88888888888889 1.6  L 3.1111111111111107 1.6  L 1.9444444444444446 3.2  Z M 3.1111111111111107 6.4  L 4.666666666666666 6.4  L 4.666666666666666 8  C 4.666666666666666 9.325483399593903  5.7113355837281485 10.4  7 10.4  C 8.28866441627185 10.4  9.333333333333332 9.325483399593903  9.333333333333332 8  L 9.333333333333332 6.4  L 10.88888888888889 6.4  L 10.88888888888889 8  C 10.88888888888889 10.209138999323173  9.147774027119752 12  7 12  C 4.852225972880248 12  3.1111111111111107 10.209138999323173  3.1111111111111107 8  L 3.1111111111111107 6.4  Z " fill-rule="nonzero" fill="#333333" stroke="none" transform="matrix(1 0 0 1 40 138 )" />
  </g>
</svg>