<?xml version="1.0" encoding="utf-8"?>
<svg version="1.1" xmlns:xlink="http://www.w3.org/1999/xlink" width="19px" height="16px" xmlns="http://www.w3.org/2000/svg">
  <g transform="matrix(1 0 0 1 -40 -250 )">
    <path d="M 18.426041666666663 5.443200000000001  C 15.882263819138345 6.61237037342232  14.24945187475791 9.176047226162927  14.25 12  L 14.25 16  L 12.666666666666666 16  L 12.666666666666666 12  C 12.666666666666666 8.4392  14.759833333333333 5.372000000000001  17.770541666666666 3.9872000000000005  L 18.426041666666663 5.443200000000001  Z M 1.229458333333333 3.9872000000000005  C 4.338163955108852 5.416007887435364  6.333709537793586 8.548903509866602  6.333333333333333 12  L 6.333333333333333 16  L 4.75 16  L 4.749999999999999 12  C 4.750237685615741 9.17633693730057  3.1174751534768075 6.613050453320838  0.5739583333333333 5.444000000000001  L 1.229458333333333 3.9872000000000005  Z M 9.5 8  C 7.313872865253111 8  5.541666666666666 6.209138999323174  5.541666666666666 4  C 5.541666666666666 1.790861000676827  7.313872865253111 0  9.5 0  C 11.68612713474689 0  13.458333333333334 1.790861000676827  13.458333333333334 4  C 13.458333333333334 6.209138999323174  11.68612713474689 8  9.5 8  Z M 9.500000035390258 6.4  C 10.811676316238392 6.4  11.875000035390258 5.325483399593905  11.875000035390258 4  C 11.875000035390258 2.6745166004060956  10.811676316238392 1.6  9.500000035390258 1.6  C 8.188323754542123 1.6  7.125000035390258 2.6745166004060956  7.125000035390258 4  C 7.125000035390258 5.325483399593905  8.188323754542123 6.4  9.500000035390258 6.4  Z " fill-rule="nonzero" fill="#333333" stroke="none" transform="matrix(1 0 0 1 40 250 )" />
  </g>
</svg>