<?xml version="1.0" encoding="utf-8"?>
<svg version="1.1" xmlns:xlink="http://www.w3.org/1999/xlink" width="13px" height="18px" xmlns="http://www.w3.org/2000/svg">
  <g transform="matrix(1 0 0 1 -40 -193 )">
    <path d="M 3.0525625000000014 10.016999999999998  L 6.5 13.487727272727271  L 9.947437500000001 10.016999999999998  C 10.861498751089826 9.096390784422233  11.375 7.847870322289814  11.375 6.546042536886426  C 11.375 3.83482649226253  9.192388155425117 1.6369516277955165  6.5 1.6369516277955165  C 3.8076118445748817 1.6369516277955165  1.625 3.83482649226253  1.625 6.546042536886426  C 1.625 7.847870322289813  2.1385012489101767 9.096390784422237  3.0525625000000014 10.016999999999998  Z M 13 6.545693049357797  C 13 8.281597088227338  12.315226516207822 9.946407947423467  11.0963125 11.17390909090909  L 6.5 15.802363636363635  L 1.9036875 11.17390909090909  C 0.6847734837921787 9.946407947423467  0 8.281597088227338  0 6.545693049357797  C 0 2.9307383231926027  2.9101491260998427 0.00023850390325108606  6.5 0.00023850390325108606  C 10.089850873900156 0.00023850390325108606  13 2.9307383231926027  13 6.545693049357797  Z M 0.8125 18  L 0.8125 16.363636363636363  L 12.1875 16.363636363636363  L 12.1875 18  L 0.8125 18  Z " fill-rule="nonzero" fill="#333333" stroke="none" transform="matrix(1 0 0 1 40 193 )" />
  </g>
</svg>