<?xml version="1.0" encoding="utf-8"?>
<svg version="1.1" xmlns:xlink="http://www.w3.org/1999/xlink" width="52px" height="52px" xmlns="http://www.w3.org/2000/svg">
  <g transform="matrix(1 0 0 1 -161 -887 )">
    <path d="M 187 887  C 201.56 887  213 898.44  213 913  C 213 927.56  201.56 939  187 939  C 172.44 939  161 927.56  161 913  C 161 898.44  172.44 887  187 887  Z " fill-rule="nonzero" fill="#ffffff" stroke="none" />
    <path d="M 187 887.5  C 201.28 887.5  212.5 898.72  212.5 913  C 212.5 927.28  201.28 938.5  187 938.5  C 172.72 938.5  161.5 927.28  161.5 913  C 161.5 898.72  172.72 887.5  187 887.5  Z " stroke-width="1" stroke="#797979" fill="none" />
  </g>
</svg>