<?xml version="1.0" encoding="utf-8"?>
<svg version="1.1" xmlns:xlink="http://www.w3.org/1999/xlink" width="201px" height="223px" xmlns="http://www.w3.org/2000/svg">
  <g transform="matrix(1 0 0 1 -97 -513 )">
    <path d="M 97 513  L 298 513  L 298 736  L 97 736  L 97 513  " fill-rule="nonzero" fill="#cccccc" stroke="none" />
    <path d="M 111 527  L 284 527  L 284 722  L 111 722  L 111 527  " fill-rule="nonzero" fill="#ffffff" stroke="none" />
    <path d="M 216.59500000000003 576.6  C 208.15300000000002 576.6  201.52 569.9670000000001  201.52 561.5250000000001  C 201.52 553.0830000000001  208.15300000000002 546.45  216.59500000000003 546.45  C 225.03700000000003 546.45  231.67000000000002 553.0830000000001  231.67000000000002 561.5250000000001  C 231.67000000000002 569.9670000000001  225.03700000000003 576.6  216.59500000000003 576.6  " fill-rule="nonzero" fill="#cccccc" stroke="none" />
    <path d="M 116 717  L 116 615.25  L 156.75 569  L 213.8 606  L 246.4 596.75  L 279 606  L 279 717  L 116 717  " fill-rule="nonzero" fill="#169bd5" stroke="none" />
    <path d="M 97.5 735.5  L 97.5 513.5  L 297.5 513.5  L 297.5 735.5  L 97.5 735.5  Z " stroke-width="1" stroke="#797979" fill="none" />
  </g>
</svg>