<?xml version="1.0" encoding="utf-8"?>
<svg version="1.1" xmlns:xlink="http://www.w3.org/1999/xlink" width="726px" height="285px" xmlns="http://www.w3.org/2000/svg">
  <g transform="matrix(1 0 0 1 -62 -107 )">
    <path d="M 62 107  L 788 107  L 788 392  L 62 392  L 62 107  " fill-rule="nonzero" fill="#cccccc" stroke="none" />
    <path d="M 82 127  L 768 127  L 768 372  L 82 372  L 82 127  " fill-rule="nonzero" fill="#ffffff" stroke="none" />
    <path d="M 460.89500000000004 192.5  C 448.925 192.5  439.52000000000004 183.095  439.52000000000004 171.125  C 439.52000000000004 159.155  448.925 149.75  460.89500000000004 149.75  C 472.86500000000007 149.75  482.27000000000004 159.155  482.27000000000004 171.125  C 482.27000000000004 183.095  472.86500000000007 192.5  460.89500000000004 192.5  " fill-rule="nonzero" fill="#cccccc" stroke="none" />
    <path d="M 89 365  L 89 237.95  L 257 180.2  L 492.2 310.59090909090907  L 626.6 214.85  L 761 310.59090909090907  L 761 365  L 89 365  " fill-rule="nonzero" fill="#169bd5" stroke="none" />
  </g>
</svg>