<?xml version="1.0" encoding="utf-8"?>
<svg version="1.1" xmlns:xlink="http://www.w3.org/1999/xlink" width="30px" height="23px" xmlns="http://www.w3.org/2000/svg">
  <g transform="matrix(1 0 0 1 -380 -13 )">
    <path d="M 27.69810267857143 20.75390625  C 27.80412946428572 20.650449810606062  27.857142857142858 20.52793560606061  27.857142857142858 20.386363636363637  L 27.857142857142858 7.840909090909092  C 27.500000000000007 8.232954545454545  27.114955357142865 8.592329545454545  26.70200892857143 8.919034090909092  C 23.7109375 11.162405303030301  21.333705357142858 13.00284090909091  19.5703125 14.44034090909091  C 19.00111607142857 14.908617424242422  18.53794642857143 15.2734375  18.18080357142857 15.534801136363637  C 17.823660714285715 15.796164772727272  17.340959821428577 16.060250946969695  16.732700892857142 16.32705965909091  C 16.124441964285715 16.59386837121212  15.552455357142858 16.727272727272727  15.016741071428571 16.727272727272727  L 15 16.727272727272727  L 14.983258928571429 16.727272727272727  C 14.447544642857144 16.727272727272727  13.875558035714286 16.59386837121212  13.267299107142856 16.32705965909091  C 12.659040178571429 16.060250946969695  12.176339285714286 15.796164772727272  11.819196428571429 15.534801136363637  C 11.462053571428573 15.2734375  10.998883928571429 14.908617424242422  10.4296875 14.44034090909091  C 8.666294642857144 13.00284090909091  6.289062500000002 11.162405303030301  3.297991071428571 8.919034090909092  C 2.8850446428571432 8.592329545454545  2.5000000000000004 8.232954545454545  2.142857142857143 7.840909090909092  L 2.142857142857143 20.386363636363637  C 2.142857142857143 20.52793560606061  2.195870535714286 20.650449810606062  2.301897321428571 20.75390625  C 2.407924107142857 20.857362689393938  2.5334821428571432 20.90909090909091  2.678571428571429 21  L 27.32142857142857 21  C 27.466517857142858 20.90909090909091  27.592075892857146 20.857362689393938  27.69810267857143 20.75390625  Z M 27.07868303571429 5.366122159090908  C 27.59765625 4.576586174242421  27.857142857142858 3.860558712121212  27.857142857142858 3.2180397727272725  L 27.857142857142858 3.0383522727272725  L 27.857142857142858 2.8178267045454555  C 27.857142857142858 2.8178267045454555  27.85435267857143 2.747040719696966  27.84877232142857 2.60546875  C 27.843191964285715 2.463896780303029  27.826450892857146 2.39583333333333  27.798549107142858 2.4012784090909083  C 27.770647321428577 2.4067234848484844  27.739955357142858 2.357717803030301  27.70647321428571 2.2542613636363638  C 27.67299107142857 2.1508049242424216  27.622767857142858 2.1099668560606046  27.55580357142857 2.1317471590909083  C 27.48883928571429 2.153527462121212  27.41071428571429 2.1399147727272725  27.32142857142857 2  L 2.678571428571429 2  C 2.5334821428571432 2.0909090909090917  2.407924107142857 2.142637310606058  2.301897321428571 2.24609375  C 2.195870535714286 2.3495501893939372  2.142857142857143 2.4720643939393927  2.142857142857143 2.6136363636363638  C 2.142857142857143 4.443181818181819  2.963169642857143 5.98958333333333  4.603794642857142 7.252840909090908  C 6.757812500000002 8.908143939393938  8.995535714285715 10.634232954545455  11.316964285714285 12.431107954545455  C 11.383928571428571 12.48555871212121  11.579241071428573 12.646188446969695  11.902901785714285 12.91299715909091  C 12.226562500000002 13.179805871212121  12.483258928571429 13.38399621212121  12.672991071428571 13.525568181818183  C 12.862723214285717 13.667140151515149  13.11104910714286 13.838660037878785  13.41796875 14.04012784090909  C 13.724888392857142 14.241595643939393  14.006696428571429 14.391335227272728  14.263392857142856 14.48934659090909  C 14.520089285714286 14.587357954545455  14.760044642857144 14.636363636363637  14.983258928571429 14.636363636363637  L 15 14.636363636363637  L 15.016741071428571 14.636363636363637  C 15.23995535714286 14.636363636363637  15.479910714285715 14.587357954545455  15.736607142857142 14.48934659090909  C 15.993303571428575 14.391335227272728  16.275111607142858 14.241595643939393  16.58203125 14.04012784090909  C 16.888950892857142 13.838660037878785  17.137276785714285 13.667140151515149  17.32700892857143 13.525568181818183  C 17.516741071428577 13.38399621212121  17.773437500000004 13.179805871212121  18.09709821428571 12.91299715909091  C 18.42075892857143 12.646188446969695  18.61607142857143 12.48555871212121  18.68303571428571 12.431107954545455  C 21.004464285714285 10.634232954545455  23.2421875 8.908143939393938  25.396205357142858 7.252840909090908  C 25.99888392857143 6.784564393939393  26.55970982142857 6.155658143939393  27.07868303571429 5.366122159090908  Z M 29.213169642857142 0.7677556818181807  C 29.73772321428572 1.279592803030301  30 1.8948863636363638  30 2.6136363636363638  L 30 20.386363636363637  C 30 21.105113636363637  29.73772321428572 21.7204071969697  29.213169642857142 22.23224431818182  C 28.688616071428577 22.744081439393938  28.05803571428572 23  27.32142857142857 23  L 2.678571428571429 23  C 1.9419642857142858 23  1.3113839285714286 22.744081439393938  0.7868303571428572 22.23224431818182  C 0.2622767857142857 21.7204071969697  0 21.105113636363637  0 20.386363636363637  L 0 2.6136363636363638  C 0 1.8948863636363638  0.2622767857142857 1.279592803030301  0.7868303571428572 0.7677556818181807  C 1.3113839285714286 0.25591856060605767  1.9419642857142858 0  2.678571428571429 0  L 27.32142857142857 0  C 28.05803571428572 0  28.688616071428577 0.25591856060605767  29.213169642857142 0.7677556818181807  Z " fill-rule="nonzero" fill="#aaaaaa" stroke="none" transform="matrix(1 0 0 1 380 13 )" />
  </g>
</svg>