<?xml version="1.0" encoding="utf-8"?>
<svg version="1.1" xmlns:xlink="http://www.w3.org/1999/xlink" width="126px" height="125px" xmlns="http://www.w3.org/2000/svg">
  <g transform="matrix(1 0 0 1 -13 -687 )">
    <path d="M 13 687  L 139 687  L 139 812  L 13 812  L 13 687  " fill-rule="nonzero" fill="#cccccc" stroke="none" />
    <path d="M 22 696  L 130 696  L 130 803  L 22 803  L 22 696  " fill-rule="nonzero" fill="#ffffff" stroke="none" />
    <path d="M 87.895 724.5  C 82.645 724.5  78.52 720.375  78.52 715.125  C 78.52 709.875  82.645 705.75  87.895 705.75  C 93.145 705.75  97.27 709.875  97.27 715.125  C 97.27 720.375  93.145 724.5  87.895 724.5  " fill-rule="nonzero" fill="#cccccc" stroke="none" />
    <path d="M 25 800  L 25 744.45  L 50.5 719.2  L 86.19999999999999 739.8809523809524  L 106.60000000000001 734.35  L 127 739.8809523809524  L 127 800  L 25 800  " fill-rule="nonzero" fill="#169bd5" stroke="none" />
  </g>
</svg>