<?xml version="1.0" encoding="utf-8"?>
<svg version="1.1" xmlns:xlink="http://www.w3.org/1999/xlink" width="22px" height="30px" xmlns="http://www.w3.org/2000/svg">
  <g transform="matrix(1 0 0 1 -121 -375 )">
    <path d="M 132 375  C 138.16 375  143 381.6  143 390  C 143 398.4  138.16 405  132 405  C 125.84 405  121 398.4  121 390  C 121 381.6  125.84 375  132 375  Z " fill-rule="nonzero" fill="#f2f2f2" stroke="none" />
    <path d="M 132 375.5  C 137.88 375.5  142.5 381.88  142.5 390  C 142.5 398.12  137.88 404.5  132 404.5  C 126.12 404.5  121.5 398.12  121.5 390  C 121.5 381.88  126.12 375.5  132 375.5  Z " stroke-width="1" stroke="#797979" fill="none" />
  </g>
</svg>