<?xml version="1.0" encoding="utf-8"?>
<svg version="1.1" xmlns:xlink="http://www.w3.org/1999/xlink" width="1190px" height="940px" xmlns="http://www.w3.org/2000/svg">
  <defs>
    <filter x="15px" y="25px" width="1190px" height="940px" filterUnits="userSpaceOnUse" id="filter452">
      <feOffset dx="0" dy="0" in="SourceAlpha" result="shadowOffsetInner" />
      <feGaussianBlur stdDeviation="2.5" in="shadowOffsetInner" result="shadowGaussian" />
      <feComposite in2="shadowGaussian" operator="atop" in="SourceAlpha" result="shadowComposite" />
      <feColorMatrix type="matrix" values="0 0 0 0 0.8941176470588235  0 0 0 0 0.8941176470588235  0 0 0 0 0.8941176470588235  0 0 0 1 0  " in="shadowComposite" />
    </filter>
    <g id="widget453">
      <path d="M 21 42  A 11 11 0 0 1 32 31 L 1188 31  A 11 11 0 0 1 1199 42 L 1199 948  A 11 11 0 0 1 1188 959 L 32 959  A 11 11 0 0 1 21 948 L 21 42  Z " fill-rule="nonzero" fill="#ffffff" stroke="none" />
      <path d="M 20.5 42  A 11.5 11.5 0 0 1 32 30.5 L 1188 30.5  A 11.5 11.5 0 0 1 1199.5 42 L 1199.5 948  A 11.5 11.5 0 0 1 1188 959.5 L 32 959.5  A 11.5 11.5 0 0 1 20.5 948 L 20.5 42  Z " stroke-width="1" stroke="#f2f2f2" fill="none" stroke-opacity="0.9882352941176471" />
    </g>
  </defs>
  <g transform="matrix(1 0 0 1 -15 -25 )">
    <use xlink:href="#widget453" filter="url(#filter452)" />
    <use xlink:href="#widget453" />
  </g>
</svg>