<?xml version="1.0" encoding="utf-8"?>
<svg version="1.1" xmlns:xlink="http://www.w3.org/1999/xlink" width="13px" height="13px" viewBox="388 477  13 13" xmlns="http://www.w3.org/2000/svg">
  <path d="M 394.5 477  C 398.14 477  401 479.86  401 483.5  C 401 487.14  398.14 490  394.5 490  C 390.86 490  388 487.14  388 483.5  C 388 479.86  390.86 477  394.5 477  Z " fill-rule="nonzero" fill="#ffffff" stroke="none" />
  <path d="M 394.5 477.5  C 397.86 477.5  400.5 480.14  400.5 483.5  C 400.5 486.86  397.86 489.5  394.5 489.5  C 391.14 489.5  388.5 486.86  388.5 483.5  C 388.5 480.14  391.14 477.5  394.5 477.5  Z " stroke-width="1" stroke="#797979" fill="none" />
  <path d="M 394.5 486.75  C 392.68 486.75  391.25 485.32  391.25 483.5  C 391.25 481.68  392.68 480.25  394.5 480.25  C 396.32 480.25  397.75 481.68  397.75 483.5  C 397.75 485.32  396.32 486.75  394.5 486.75  " fill-rule="nonzero" fill="#797979" stroke="none" />
</svg>