<?xml version="1.0" encoding="utf-8"?>
<svg version="1.1" xmlns:xlink="http://www.w3.org/1999/xlink" width="13px" height="13px" viewBox="339 477  13 13" xmlns="http://www.w3.org/2000/svg">
  <path d="M 345.5 477  C 349.14 477  352 479.86  352 483.5  C 352 487.14  349.14 490  345.5 490  C 341.86 490  339 487.14  339 483.5  C 339 479.86  341.86 477  345.5 477  Z " fill-rule="nonzero" fill="#f0f0f0" stroke="none" />
  <path d="M 345.5 477.5  C 348.86 477.5  351.5 480.14  351.5 483.5  C 351.5 486.86  348.86 489.5  345.5 489.5  C 342.14 489.5  339.5 486.86  339.5 483.5  C 339.5 480.14  342.14 477.5  345.5 477.5  Z " stroke-width="1" stroke="#797979" fill="none" />
  <path d="M 345.5 486.75  C 343.68 486.75  342.25 485.32  342.25 483.5  C 342.25 481.68  343.68 480.25  345.5 480.25  C 347.32 480.25  348.75 481.68  348.75 483.5  C 348.75 485.32  347.32 486.75  345.5 486.75  " fill-rule="nonzero" fill="#797979" stroke="none" />
</svg>